<svg width="451" height="21" viewBox="0 0 451 21" fill="none" xmlns="http://www.w3.org/2000/svg">
<path d="M216.8 12.1572C216.8 11.2256 216.981 10.3877 217.345 9.64355C217.714 8.89941 218.224 8.3252 218.874 7.9209C219.53 7.5166 220.277 7.31445 221.115 7.31445C222.41 7.31445 223.456 7.7627 224.253 8.65918C225.056 9.55566 225.457 10.748 225.457 12.2363V12.3506C225.457 13.2764 225.278 14.1084 224.921 14.8467C224.569 15.5791 224.062 16.1504 223.4 16.5605C222.744 16.9707 221.988 17.1758 221.133 17.1758C219.844 17.1758 218.798 16.7275 217.995 15.8311C217.198 14.9346 216.8 13.748 216.8 12.2715V12.1572ZM218.435 12.3506C218.435 13.4053 218.678 14.252 219.164 14.8906C219.656 15.5293 220.312 15.8486 221.133 15.8486C221.959 15.8486 222.615 15.5264 223.102 14.8818C223.588 14.2314 223.831 13.3232 223.831 12.1572C223.831 11.1143 223.582 10.2705 223.084 9.62598C222.592 8.97559 221.936 8.65039 221.115 8.65039C220.312 8.65039 219.665 8.96973 219.173 9.6084C218.681 10.2471 218.435 11.1611 218.435 12.3506ZM233.367 16.0596C232.734 16.8037 231.806 17.1758 230.581 17.1758C229.567 17.1758 228.794 16.8828 228.261 16.2969C227.733 15.7051 227.467 14.832 227.461 13.6777V7.49023H229.087V13.6338C229.087 15.0752 229.673 15.7959 230.845 15.7959C232.087 15.7959 232.913 15.333 233.323 14.4072V7.49023H234.949V17H233.402L233.367 16.0596Z" fill="#333333"/>
<line y1="10.5" x2="193" y2="10.5" stroke="#BBBBBB"/>
<line x1="258" y1="10.5" x2="451" y2="10.5" stroke="#BBBBBB"/>
</svg>
