<svg width="90" height="90" viewBox="0 0 90 90" fill="none" xmlns="http://www.w3.org/2000/svg">
<path d="M49.091 26.5908C48.5455 26.0454 47.7273 26.0454 47.1819 26.5908C45.9546 27.8181 44.0455 27.8181 42.8182 26.5908C42.2728 26.0454 41.4546 26.0454 40.9091 26.5908C40.3637 27.1363 40.3637 27.9545 40.9091 28.4999C42.0001 29.5908 43.5001 30.1363 45.0001 30.1363C46.5001 30.1363 48.0001 29.5908 49.091 28.4999C49.6364 27.9545 49.6364 27.1363 49.091 26.5908ZM49.3637 23.0454H51.8182C52.6364 23.0454 53.1819 22.4999 53.1819 21.6818C53.1819 20.8636 52.6364 20.3181 51.8182 20.3181H49.3637C48.5455 20.3181 48.0001 20.8636 48.0001 21.6818C48.0001 22.4999 48.6819 23.0454 49.3637 23.0454ZM42.0001 21.6818C42.0001 20.8636 41.4546 20.3181 40.6364 20.3181H38.1819C37.3637 20.3181 36.8182 20.8636 36.8182 21.6818C36.8182 22.4999 37.3637 23.0454 38.1819 23.0454H40.6364C41.3182 23.0454 42.0001 22.3636 42.0001 21.6818Z" fill="#F2A922"/>
<path d="M74.7273 51.9544C73.5001 51.2726 72.2728 50.7272 71.0455 50.3181V41.0453C71.0455 40.0908 70.5001 39.2726 69.6819 38.7272C68.8637 38.1817 67.9091 38.1817 66.9546 38.5908L64.2273 39.9544C62.7273 37.909 60.2728 36.5453 57.6819 36.5453H53.1819L51.5455 34.0908C54.1364 32.4544 56.3182 29.7272 57.8182 26.4544C61.6364 25.7726 62.7273 18.9544 59.591 16.6363C59.1819 7.49989 53.4546 1.36353 45.0001 1.36353C36.5455 1.36353 30.8182 7.49989 30.4091 16.6363C27.2728 18.9544 28.3637 25.7726 32.1819 26.4544C33.6819 29.8635 35.8637 32.4544 38.4546 34.0908L36.6819 36.6817H32.1819C29.591 36.6817 27.1364 37.909 25.6364 40.0908L22.9091 38.7272C22.091 38.3181 21.0001 38.3181 20.1819 38.8635C19.3637 39.409 18.8182 40.2272 18.8182 41.1817V50.4544C17.591 50.8635 16.3637 51.5453 15.1364 52.0908C13.7728 52.7726 12.8182 54.1363 12.8182 55.7726V63.8181C12.8182 65.3181 13.6364 66.6817 15.1364 67.4999C16.2273 68.0453 17.4546 68.5908 18.6819 69.1362H18.8182V74.0453C18.8182 75.1362 19.3637 75.9544 20.3182 76.4999L44.3182 88.7726C44.591 88.6362 44.8637 88.6362 45.0001 88.6362C45.1364 88.6362 45.4091 88.6362 45.5455 88.4999L69.5455 76.2272C70.5001 75.8181 71.0455 74.8635 71.0455 73.7726V68.8635C72.2728 68.4544 73.5001 67.7726 74.7273 67.2272C76.091 66.5453 77.0455 65.1817 77.0455 63.5453V55.4999C77.0455 53.9999 76.2273 52.6362 74.7273 51.9544ZM45.0001 4.0908C50.4546 4.0908 54.4091 7.0908 56.0455 11.9999L55.2273 10.909C54.8182 10.3635 54.0001 10.0908 53.4546 10.4999C47.8637 14.0453 42.2728 14.0453 36.6819 10.4999C36.1364 10.0908 35.3182 10.2272 34.9091 10.909L34.091 11.9999C35.591 7.0908 39.5455 4.0908 45.0001 4.0908ZM34.5001 24.5453C34.2273 23.9999 33.8182 23.5908 33.2728 23.5908C33.1364 23.5908 33.1364 23.5908 33.0001 23.5908H32.8637C32.4546 23.5908 31.6364 22.7726 31.5001 21.2726C31.3637 19.7726 31.9091 18.8181 32.3182 18.6817C32.7273 18.5453 32.8637 18.409 33.1364 17.9999L36.4091 13.3635C42.2728 16.6363 48.1364 16.6363 53.8637 13.3635L57.1364 17.9999C57.2728 18.2726 57.5455 18.5453 57.9546 18.6817C58.3637 18.8181 58.9091 19.7726 58.7728 21.2726C58.6364 22.7726 57.8182 23.5908 57.4091 23.5908C56.7273 23.4544 56.0455 23.8635 55.7728 24.409C53.7273 29.8635 49.6364 33.1362 45.2728 33.1362C40.9091 33.1362 36.5455 29.9999 34.5001 24.5453ZM45.0001 36.1362C46.3637 36.1362 47.7273 35.8635 49.091 35.4544L51.1364 38.4544C50.591 40.2272 48.9546 42.9544 45.0001 44.0453C41.0455 42.9544 39.2728 40.2272 38.8637 38.4544L40.9091 35.4544C42.2728 35.8635 43.6364 36.1362 45.0001 36.1362ZM32.1819 39.409H36.2728C37.091 41.8635 39.4091 45.409 44.4546 46.7726H44.591C44.7273 46.7726 44.8637 46.7726 44.8637 46.7726C45.0001 46.7726 45.1364 46.7726 45.1364 46.7726C50.3182 45.409 52.6364 41.9999 53.4546 39.409H57.5455C59.1819 39.409 60.6819 40.0908 61.6364 41.3181L45.0001 49.909L28.091 41.3181C29.0455 40.0908 30.5455 39.409 32.1819 39.409ZM16.5001 64.7726C16.091 64.4999 15.6819 64.0908 15.6819 63.5453V55.4999C15.6819 54.9544 15.9546 54.5453 16.5001 54.2726C19.5001 52.7726 21.4091 52.0908 23.3182 51.9544H23.4546C24.4091 51.9544 25.091 52.6362 25.091 53.5908C25.091 54.5453 24.2728 55.2272 23.4546 55.2272H23.3182H23.1819L19.9091 55.909C19.2273 56.0453 18.6819 56.7272 18.8182 57.5453C18.9546 58.2272 19.5001 58.6362 20.1819 58.6362C20.3182 58.6362 20.3182 58.6362 20.4546 58.6362L23.4546 57.9544C24.4091 57.9544 25.091 58.6362 25.091 59.4544C25.091 60.2726 24.4091 60.9544 23.4546 61.0908L20.4546 60.5453C19.7728 60.409 18.9546 60.8181 18.8182 61.6362C18.6819 62.3181 19.091 63.1362 19.9091 63.2726L23.1819 63.9544C23.3182 63.9544 23.3182 63.9544 23.4546 63.9544C24.0001 63.9544 24.4091 64.0908 24.6819 64.4999C24.9546 64.7726 25.091 65.1817 25.091 65.5908C25.091 66.409 24.1364 67.0908 23.1819 67.0908V68.4544L23.0455 67.0908C21.9546 67.0908 20.8637 66.8181 19.6364 66.2726C18.8182 65.9999 17.8637 65.5908 16.5001 64.7726ZM21.6819 69.6817C22.2273 69.8181 22.6364 69.8181 23.1819 69.8181H23.3182C25.7728 69.8181 27.8182 68.0453 27.9546 65.7272C28.091 64.4999 27.6819 63.409 26.8637 62.5908C27.5455 61.7726 28.091 60.8181 28.091 59.5908C28.091 58.4999 27.6819 57.409 26.8637 56.5908C27.5455 55.7726 28.091 54.8181 28.091 53.5908C28.091 51.2726 26.1819 49.3635 23.8637 49.2272H23.7273C23.0455 49.2272 22.5001 49.2272 21.9546 49.3635V40.7726L43.6364 52.2272V84.9544L21.6819 73.7726V69.6817V69.6817ZM68.3182 73.7726L46.3637 85.0908V52.3635L64.3637 43.0908L68.3182 41.0453V49.6363C67.7728 49.4999 67.091 49.4999 66.5455 49.4999C66.4091 49.4999 66.4092 49.4999 66.4092 49.4999C64.091 49.6362 62.1819 51.5453 62.1819 53.8635C62.1819 54.9544 62.591 56.0453 63.4091 56.8635C62.7273 57.6817 62.1819 58.6363 62.1819 59.8635C62.1819 60.9544 62.591 62.0453 63.4091 62.8635C62.591 63.6817 62.1819 64.909 62.3182 65.9999C62.4546 68.3181 64.5001 70.0908 66.9546 70.0908H67.091C69.8182 69.6817 67.3637 69.8181 68.3182 73.7726ZM74.3182 63.6817C74.3182 64.2272 74.0455 64.6362 73.5001 64.909C71.4546 65.9999 69.1364 67.0908 66.8182 67.2272C66.6819 67.2272 66.5455 67.2272 66.6819 67.2272C65.7273 67.2272 64.9091 66.5453 64.7728 65.7272C64.7728 65.3181 64.9091 64.909 65.1819 64.6362C65.4546 64.2272 66.0001 64.0908 66.4092 64.0908C66.6819 64.0908 66.6819 64.0908 69.9546 63.409C70.6364 63.2726 71.1819 62.5908 71.0455 61.7726C70.6364 59.7272 67.9092 61.2272 66.4092 61.3635C65.4546 61.3635 64.7728 60.6817 64.7728 59.7272C64.7728 58.909 65.4546 58.2272 66.4092 58.2272C67.7728 58.3635 70.6364 59.8635 71.0455 57.8181C71.1819 57.1363 70.7728 56.3181 69.9546 56.1817L66.8182 55.3635H66.6819H66.5455C65.591 55.3635 64.9091 54.6817 64.9091 53.7272C64.9091 52.7726 65.7273 52.0908 66.5455 52.0908H66.6819C69.0001 52.0908 71.4546 53.3181 73.5001 54.409C73.9091 54.6817 74.3182 55.0908 74.3182 55.6362V63.6817Z" fill="#F2A922"/>
</svg>
