<svg width="28" height="24" viewBox="0 0 28 24" fill="none" xmlns="http://www.w3.org/2000/svg">
<path d="M2.00008 0H26.0001C26.3537 0 26.6928 0.140476 26.9429 0.390524C27.1929 0.640573 27.3334 0.979711 27.3334 1.33333V22.6667C27.3334 23.0203 27.1929 23.3594 26.9429 23.6095C26.6928 23.8595 26.3537 24 26.0001 24H2.00008C1.64646 24 1.30732 23.8595 1.05727 23.6095C0.807224 23.3594 0.666748 23.0203 0.666748 22.6667V1.33333C0.666748 0.979711 0.807224 0.640573 1.05727 0.390524C1.30732 0.140476 1.64646 0 2.00008 0V0ZM14.0801 11.5773L5.53075 4.31733L3.80408 6.34933L14.0974 15.0893L24.2054 6.34267L22.4614 4.32533L14.0814 11.5773H14.0801Z" fill="#3F77BF"/>
</svg>
