<svg width="48" height="48" viewBox="0 0 48 48" fill="none" xmlns="http://www.w3.org/2000/svg">
<circle cx="24" cy="24" r="24" fill="#F2A922"/>
<path d="M15 15H33C33.2652 15 33.5196 15.1054 33.7071 15.2929C33.8946 15.4804 34 15.7348 34 16V32C34 32.2652 33.8946 32.5196 33.7071 32.7071C33.5196 32.8946 33.2652 33 33 33H15C14.7348 33 14.4804 32.8946 14.2929 32.7071C14.1054 32.5196 14 32.2652 14 32V16C14 15.7348 14.1054 15.4804 14.2929 15.2929C14.4804 15.1054 14.7348 15 15 15V15ZM24.06 23.683L17.648 18.238L16.353 19.762L24.073 26.317L31.654 19.757L30.346 18.244L24.061 23.683H24.06Z" fill="#F5F5F5"/>
</svg>
