<svg width="582" height="399" viewBox="0 0 582 399" fill="none" xmlns="http://www.w3.org/2000/svg">
<g opacity="0.63">
<path opacity="0.63" d="M410.932 0.0823669H252.546C233.236 0.0823669 217.583 15.7362 217.583 35.0463V193.432C217.583 212.742 233.236 228.396 252.546 228.396H410.932C430.242 228.396 445.896 212.742 445.896 193.432V35.0463C445.896 15.7362 430.242 0.0823669 410.932 0.0823669Z" fill="#B8ACA8"/>
</g>
<path d="M400.623 0.0823669H242.237C222.927 0.0823669 207.273 15.7362 207.273 35.0463V193.432C207.273 212.742 222.927 228.396 242.237 228.396H400.623C419.933 228.396 435.587 212.742 435.587 193.432V35.0463C435.587 15.7362 419.933 0.0823669 400.623 0.0823669Z" fill="#FEF6E9"/>
<path d="M393.83 114.711C393.772 104.748 387.083 97.0538 378.78 97.0003C370.476 96.9467 363.61 104.743 363.54 114.711H322.139V154.189H321.863C311.978 154.189 304 160.972 304 169.346C304 177.719 311.999 184.499 321.863 184.499H322.139V228.705H404.777C413.094 228.704 421.069 225.399 426.949 219.518C432.83 213.637 436.133 205.661 436.133 197.345V114.711H393.83Z" fill="#F7887D"/>
<path d="M339.341 57.2133C339.341 48.877 331.186 42.114 321.593 42.0605V0H238.605C230.288 0.00109226 222.313 3.30557 216.432 9.1866C210.552 15.0676 207.249 23.0436 207.249 31.36V114.365H252.073C253.078 122.849 259.417 129.798 267.086 129.798C274.755 129.798 281.089 122.849 282.103 114.365H321.593V72.3538C331.186 72.3167 339.341 65.5537 339.341 57.2133Z" fill="#B0E5E0"/>
<path d="M36.3749 312.418L35.6377 312.361C37.7341 284.271 29.9044 254.464 29.822 254.167L30.5387 253.978C30.6334 254.274 38.5002 284.197 36.3749 312.418Z" fill="#39BFB2"/>
<path d="M35.6623 309.885C31.5682 292.414 26.1439 284.193 26.0903 284.11L26.704 283.698C26.7617 283.781 32.252 292.096 36.383 309.716L35.6623 309.885Z" fill="#39BFB2"/>
<path d="M40.1857 290.47L35.6281 322.699L36.362 322.803L40.9196 290.574L40.1857 290.47Z" fill="#39BFB2"/>
<path d="M45.0778 359.038C40.668 359.06 36.2555 359.06 31.8402 359.038C22.8984 358.993 16.6009 353.012 17.7541 345.805L24.0187 301.66C33.6291 301.512 43.2477 301.512 52.8745 301.66L59.1515 345.805C60.3294 353.012 54.0196 358.993 45.0778 359.038Z" fill="#FDFDFF"/>
<path d="M40.6458 292.533C40.6458 292.533 14.5496 260.819 58.5005 225.488C58.9267 225.148 59.4306 224.92 59.9669 224.822C60.5033 224.725 61.0554 224.763 61.5737 224.931C62.0921 225.1 62.5605 225.394 62.9371 225.788C63.3136 226.182 63.5865 226.664 63.7313 227.189C68.3814 244.496 83.4148 304.556 40.6458 292.533Z" fill="#39BFB2"/>
<path d="M30.1967 257.524C30.1967 257.524 14.1007 251.687 17.2927 220.426C17.3214 220.16 17.423 219.906 17.5865 219.693C17.75 219.481 17.969 219.317 18.2193 219.221C18.4697 219.125 18.7417 219.1 19.0055 219.148C19.2693 219.196 19.5146 219.317 19.7145 219.495C26.321 225.439 45.3701 244.727 30.1967 257.524Z" fill="#39BFB2"/>
<path d="M27.9767 287.236C27.9767 287.236 39.1385 268.644 5.84262 239.517C5.38157 239.113 4.81702 238.846 4.21244 238.745C3.60786 238.644 2.9872 238.714 2.42023 238.947C1.85327 239.18 1.36246 239.566 1.00298 240.063C0.643498 240.559 0.429591 241.146 0.385302 241.757C-0.784418 258.347 -1.13451 301.038 27.9767 287.236Z" fill="#39BFB2"/>
<path d="M41.0083 292.632L40.2875 292.459C40.8394 290.148 53.9205 235.699 61.5525 224.833L62.1579 225.245C54.6083 236.007 41.1442 292.068 41.0083 292.632Z" fill="#007578"/>
<path d="M30.8434 256.663C30.8105 256.432 27.4001 233.598 18.9197 221.242L19.5292 220.83C28.1086 233.334 31.5436 256.342 31.5765 256.576L30.8434 256.663Z" fill="#007578"/>
<path d="M27.6348 287.372C27.5112 287.072 15.328 257.079 4.88293 244.949L5.4472 244.463C15.9706 256.7 28.1991 286.791 28.3185 287.096L27.6348 287.372Z" fill="#007578"/>
<path d="M58.616 276.882H45.0242V277.294H58.616V276.882Z" fill="#007578"/>
<path d="M41.6257 250.478L41.1704 251.063L49.5859 257.612L50.0412 257.027L41.6257 250.478Z" fill="#007578"/>
<path d="M64.1761 243.221L53.757 244.331L53.8355 245.068L64.2546 243.958L64.1761 243.221Z" fill="#007578"/>
<path d="M33.6361 243.323L29.2017 247.391L29.7028 247.937L34.1372 243.87L33.6361 243.323Z" fill="#007578"/>
<path d="M26.0778 236.106H19.8997V236.518H26.0778V236.106Z" fill="#007578"/>
<path d="M7.86756 271.862L7.76489 272.596L22.2415 274.621L22.3441 273.886L7.86756 271.862Z" fill="#007578"/>
<path d="M16.5174 251.805L14.6964 259.344L15.4171 259.518L17.2381 251.979L16.5174 251.805Z" fill="#007578"/>
<path d="M10.0148 250.522H4.24854V250.934H10.0148V250.522Z" fill="#007578"/>
<path d="M121.933 50.335H34.7638C34.0245 50.335 33.4252 50.9343 33.4252 51.6736V125.605C33.4252 126.344 34.0245 126.943 34.7638 126.943H121.933C122.672 126.943 123.271 126.344 123.271 125.605V51.6736C123.271 50.9343 122.672 50.335 121.933 50.335Z" fill="#8CADD9"/>
<g opacity="0.63">
<path opacity="0.63" d="M93.2745 117.31H57.8534C41.3785 99.871 36.885 76.9668 44.3152 59.528H79.0279C71.8407 76.9668 76.5854 99.871 93.2745 117.31Z" fill="#FDFDFF"/>
</g>
<g opacity="0.63">
<path opacity="0.63" d="M124.079 83.3878H88.8634C82.2981 76.0853 80.6959 66.501 84.0568 59.1903L117.188 59.5363C114.68 66.7935 116.974 76.2007 124.079 83.3878Z" fill="#FDFDFF"/>
</g>
<g opacity="0.63">
<path opacity="0.63" d="M122.097 110.098H93.8141C88.5421 104.233 87.257 96.5307 89.9548 90.6656L116.562 90.9457C114.548 96.7737 116.389 104.327 122.097 110.098Z" fill="#FDFDFF"/>
</g>
<path d="M171.345 110.697C171.345 110.697 162.379 110.697 158.903 116.818C155.579 122.674 149.228 127.621 144.965 129.421C140.702 131.221 134.668 136.55 135.904 143.565C137.139 150.579 135.747 147.552 135.747 147.552L173.879 148.202C173.879 148.202 175.431 138.82 176.42 136.435C177.408 134.05 184.843 113.115 171.345 110.697Z" fill="#6E000E"/>
<path d="M93.7528 364.032L84.1109 363.777C83.732 363.826 67.2035 369.469 66.8864 369.675L50.7903 378.514C48.3891 380.058 45.6131 377.167 47.2524 374.831L69.0157 348.632C69.3658 348.134 77.1955 339.921 77.7804 339.76L96.9037 337.853C97.3312 337.738 97.7812 337.733 98.211 337.84C98.6409 337.947 99.0364 338.161 99.3601 338.464C99.6838 338.766 99.9251 339.146 100.061 339.567C100.197 339.989 100.223 340.438 100.137 340.872L95.9687 361.956C95.863 362.491 95.5923 362.978 95.1948 363.351C94.7973 363.723 94.2929 363.961 93.7528 364.032Z" fill="#6E000E"/>
<path d="M225.734 348.822V362.607L227.27 377.084L287.259 378.925C289.665 379 290.604 375.787 288.495 374.601C285.818 373.081 261.838 368.793 257.847 365.585C255.231 363.621 253.128 361.054 251.718 358.102C250.308 355.15 249.633 351.901 249.75 348.632L225.734 348.822Z" fill="#6E000E"/>
<path d="M223.2 327.474L225.733 352.656H249.725V324.653L223.2 327.474Z" fill="#FCC4AC"/>
<path d="M205.428 182.709L211.923 196.26L257.6 175.139L264.874 191.655C264.874 191.655 209.81 223.143 202.611 221.372C195.411 219.601 187.981 192.199 187.981 192.199L205.428 182.709Z" fill="#FCC4AC"/>
<path d="M169.385 270.595C188.422 277.839 212.566 253.65 212.566 253.65L216.47 340.3H255.491C255.491 340.3 261.822 226.648 244.597 206.705C227.373 186.762 153.129 232.719 153.129 232.719L131.859 241.916L169.385 270.595Z" fill="#F2A922"/>
<path d="M225.033 311.547C220.602 313.288 216.097 314.812 211.52 316.119C207.702 317.21 209.324 323.174 213.167 322.079C217.742 320.772 222.239 319.246 226.66 317.503C228.209 316.893 229.304 315.443 228.818 313.701C228.407 312.227 226.586 310.929 225.021 311.547H225.033Z" fill="#FDFDFF"/>
<path d="M234.572 316.667L237.814 327.12C238.992 330.905 244.955 329.291 243.773 325.473L240.528 315.019C239.354 311.234 233.386 312.849 234.572 316.667Z" fill="#FDFDFF"/>
<path d="M229.955 261.187L225.593 258.144C224.267 257.217 222.105 257.859 221.368 259.252C220.544 260.833 221.059 262.489 222.476 263.482L226.837 266.521C228.164 267.448 230.326 266.805 231.063 265.413C231.887 263.832 231.372 262.176 229.955 261.187Z" fill="#FDFDFF"/>
<path d="M239.811 234.037L244 224.708C244.684 223.188 244.441 221.388 242.892 220.482C241.57 219.708 239.35 220.07 238.666 221.59L234.486 230.931C233.802 232.451 234.045 234.251 235.594 235.157C236.916 235.927 239.132 235.569 239.82 234.049L239.811 234.037Z" fill="#FDFDFF"/>
<path d="M221.842 217.315L214.465 211.095C213.192 210.02 211.347 209.86 210.099 211.095C208.995 212.199 208.814 214.39 210.099 215.461L217.472 221.681C218.748 222.756 220.594 222.916 221.842 221.681C222.945 220.577 223.122 218.386 221.842 217.311V217.315Z" fill="#FDFDFF"/>
<path d="M192.063 215.976L187.755 214.679C186.206 214.217 184.32 215.235 183.957 216.837C183.755 217.627 183.867 218.464 184.27 219.173C184.672 219.882 185.334 220.407 186.115 220.638L190.415 221.936C191.964 222.397 193.85 221.38 194.217 219.778C194.419 218.988 194.307 218.151 193.904 217.442C193.502 216.733 192.84 216.208 192.059 215.976H192.063Z" fill="#FDFDFF"/>
<path d="M184.093 248.947L181.622 255.125C181.004 256.673 182.298 258.514 183.78 258.922C185.539 259.408 186.956 258.321 187.578 256.764L190.049 250.586C190.667 249.037 189.374 247.196 187.891 246.788C186.132 246.302 184.711 247.39 184.093 248.947Z" fill="#FDFDFF"/>
<path d="M173.986 246.595C169.445 246.351 164.946 245.602 160.571 244.362C156.737 243.287 155.102 249.247 158.924 250.322C163.836 251.702 168.886 252.531 173.982 252.793C177.956 253.003 177.944 246.825 173.982 246.615L173.986 246.595Z" fill="#FDFDFF"/>
<path d="M161.127 230.561C160.493 223.405 160.744 216.199 161.877 209.106C162.511 205.218 156.56 203.546 155.917 207.459C154.642 215.087 154.317 222.844 154.949 230.552C155.283 234.482 161.465 234.519 161.127 230.552V230.561Z" fill="#FDFDFF"/>
<g opacity="0.71">
<path opacity="0.71" d="M212.566 253.477L222.599 230.948L213.344 270.743L212.566 253.477Z" fill="#F2A922"/>
</g>
<path d="M131.826 235.309C131.826 235.309 91.5943 265.195 131.826 294.207C172.058 323.22 202.553 319.822 202.553 319.822L90.1362 338.558V368.171C102.904 373.238 290.455 391.36 267.703 320.155C264.511 310.163 257.151 302.033 247.694 297.502L184.266 260.475L149.079 239.276L131.826 235.309Z" fill="#F5BA4E"/>
<path d="M234.791 346.519C236.226 348.717 237.903 350.747 239.791 352.57C240.076 352.865 240.417 353.1 240.794 353.261C241.171 353.423 241.576 353.508 241.986 353.512C242.397 353.515 242.803 353.437 243.183 353.281C243.562 353.126 243.907 352.896 244.197 352.606C244.487 352.316 244.716 351.971 244.871 351.591C245.027 351.211 245.104 350.805 245.101 350.394C245.097 349.984 245.012 349.579 244.849 349.202C244.687 348.825 244.452 348.485 244.157 348.2C242.632 346.762 241.278 345.151 240.125 343.401C239.698 342.708 239.021 342.206 238.234 341.999C237.447 341.793 236.61 341.898 235.899 342.293C234.515 343.117 233.868 345.119 234.791 346.519Z" fill="#FDFDFF"/>
<path d="M189.499 304.56C190.934 306.757 192.612 308.787 194.5 310.61C194.785 310.905 195.126 311.14 195.503 311.302C195.88 311.464 196.285 311.549 196.695 311.552C197.105 311.555 197.512 311.477 197.892 311.322C198.271 311.166 198.616 310.937 198.906 310.646C199.196 310.356 199.425 310.011 199.58 309.631C199.735 309.252 199.813 308.845 199.809 308.435C199.806 308.025 199.72 307.619 199.558 307.243C199.396 306.866 199.161 306.525 198.865 306.24C197.34 304.802 195.987 303.192 194.833 301.442C194.407 300.748 193.73 300.246 192.943 300.04C192.155 299.833 191.319 299.939 190.607 300.334C189.224 301.158 188.577 303.159 189.499 304.56Z" fill="#FDFDFF"/>
<path d="M133.485 283.966C134.92 286.164 136.597 288.193 138.485 290.017C138.77 290.311 139.111 290.547 139.488 290.708C139.865 290.87 140.27 290.955 140.681 290.958C141.091 290.962 141.497 290.883 141.877 290.728C142.257 290.572 142.601 290.343 142.891 290.053C143.181 289.763 143.41 289.418 143.565 289.038C143.721 288.658 143.799 288.251 143.795 287.841C143.791 287.431 143.706 287.026 143.544 286.649C143.381 286.272 143.146 285.931 142.851 285.647C141.326 284.208 139.973 282.598 138.819 280.848C138.393 280.155 137.715 279.652 136.928 279.446C136.141 279.24 135.304 279.345 134.593 279.74C133.209 280.564 132.562 282.566 133.485 283.966Z" fill="#FDFDFF"/>
<path d="M227.392 305.383C228.827 307.581 230.504 309.611 232.392 311.434C232.677 311.729 233.018 311.964 233.395 312.126C233.772 312.287 234.178 312.372 234.588 312.376C234.998 312.379 235.405 312.301 235.784 312.145C236.164 311.99 236.509 311.76 236.798 311.47C237.088 311.18 237.318 310.835 237.473 310.455C237.628 310.076 237.706 309.669 237.702 309.259C237.698 308.848 237.613 308.443 237.451 308.066C237.289 307.689 237.053 307.349 236.758 307.064C235.233 305.626 233.88 304.016 232.726 302.266C232.3 301.572 231.623 301.07 230.835 300.863C230.048 300.657 229.211 300.762 228.5 301.158C227.116 301.981 226.469 303.983 227.392 305.383Z" fill="#FDFDFF"/>
<path d="M225.573 324.303L217.533 320.596C216.018 319.9 214.205 320.184 213.307 321.704C212.529 323.034 212.896 325.234 214.415 325.93L222.455 329.637C223.967 330.333 225.779 330.048 226.681 328.529C227.459 327.198 227.093 325.003 225.573 324.303Z" fill="#FDFDFF"/>
<path d="M214.139 292.968C214.019 291.167 214.19 289.359 214.646 287.613C215.663 283.766 209.703 282.123 208.69 285.966C208.078 288.246 207.832 290.61 207.961 292.968C207.98 293.781 208.312 294.556 208.887 295.131C209.462 295.706 210.237 296.038 211.05 296.057C212.648 296.057 214.238 294.64 214.139 292.968Z" fill="#FDFDFF"/>
<path d="M147.354 268.473L151.02 259.194C151.634 257.641 150.349 255.8 148.866 255.392C147.107 254.91 145.678 255.994 145.064 257.551L141.403 266.834C140.789 268.383 142.074 270.224 143.561 270.632C145.315 271.114 146.745 270.034 147.362 268.473H147.354Z" fill="#FDFDFF"/>
<path d="M161.057 296.674C160.946 298.442 160.14 300.094 158.817 301.271C155.934 304.002 160.287 308.363 163.183 305.637C165.649 303.291 167.103 300.076 167.236 296.674C167.326 295.006 165.753 293.585 164.146 293.585C163.332 293.599 162.554 293.929 161.977 294.505C161.401 295.082 161.071 295.859 161.057 296.674Z" fill="#FDFDFF"/>
<path d="M172.556 279.211C176.082 279.899 179.677 280.159 183.265 279.985C187.219 279.779 187.244 273.597 183.265 273.807C180.233 273.989 177.191 273.804 174.204 273.255C170.316 272.522 168.652 278.474 172.556 279.211Z" fill="#FDFDFF"/>
<path d="M139.38 243.543C139.213 239.255 139.597 234.964 140.525 230.775C141.386 226.903 135.435 225.247 134.565 229.127C133.499 233.855 133.041 238.699 133.202 243.543C133.342 247.509 139.52 247.526 139.38 243.543Z" fill="#FDFDFF"/>
<path d="M170.897 349.184V355.98C170.897 359.955 177.075 359.963 177.075 355.98V349.184C177.075 345.209 170.897 345.201 170.897 349.184Z" fill="#FDFDFF"/>
<path d="M194.192 358.834C197.143 359.418 199.998 360.412 202.673 361.787C206.194 363.616 209.325 358.286 205.791 356.433C202.654 354.785 199.304 353.582 195.836 352.858C191.952 352.063 190.292 358.019 194.188 358.814L194.192 358.834Z" fill="#FDFDFF"/>
<path d="M203.814 332.141L196.429 330.761C194.781 330.456 193.097 331.214 192.627 332.919C192.215 334.423 193.138 336.412 194.785 336.721L202.17 338.096C203.818 338.401 205.502 337.643 205.972 335.938C206.384 334.435 205.461 332.446 203.814 332.141Z" fill="#FDFDFF"/>
<path d="M147.791 348.822L143.499 354.403C142.482 355.729 143.293 357.862 144.607 358.633C146.197 359.563 147.811 358.851 148.833 357.525L153.124 351.94C154.142 350.613 153.33 348.48 152.017 347.714C150.423 346.779 148.812 347.495 147.791 348.822Z" fill="#FDFDFF"/>
<path d="M250.657 315.884L246.366 321.465C245.348 322.791 246.16 324.925 247.474 325.695C249.063 326.626 250.678 325.913 251.699 324.587L255.991 319.002C257.008 317.676 256.197 315.543 254.883 314.776C253.289 313.841 251.679 314.558 250.657 315.884Z" fill="#FDFDFF"/>
<path d="M114.058 355.98V361.54C114.058 362.36 114.384 363.145 114.963 363.725C115.542 364.304 116.328 364.629 117.147 364.629C117.966 364.629 118.752 364.304 119.331 363.725C119.911 363.145 120.236 362.36 120.236 361.54V355.98C120.236 355.161 119.911 354.375 119.331 353.796C118.752 353.216 117.966 352.891 117.147 352.891C116.328 352.891 115.542 353.216 114.963 353.796C114.384 354.375 114.058 355.161 114.058 355.98Z" fill="#FDFDFF"/>
<g opacity="0.71">
<path opacity="0.71" d="M202.463 320.118H225.626L173.562 324.797L202.463 320.118Z" fill="#F2A922"/>
</g>
<path d="M205.428 182.709L192.932 152.733C192.802 151.06 192.141 149.473 191.046 148.202C190.349 147.391 189.494 146.731 188.533 146.262L172.734 138.556L160.695 136.085C160.695 136.085 126.942 141.406 122.695 145.146C118.449 148.886 105.981 189.554 105.981 189.554L132.539 192.763L123.799 243.011L195.337 210.828L194.419 188.488L205.428 182.709Z" fill="#6592CC"/>
<path d="M165.93 157.737C164.761 157.738 163.594 157.658 162.437 157.498C147.803 155.488 138.783 141.637 138.408 141.048L140.488 139.718L139.446 140.385L140.488 139.718C140.575 139.85 149.29 153.207 162.791 155.052C170.736 156.139 178.834 153.058 186.857 145.9L188.504 147.741C181.058 154.385 173.5 157.737 165.93 157.737Z" fill="#3F77BF"/>
<path d="M169.283 173.903C168.832 173.903 168.377 173.903 167.925 173.903C159.89 173.637 151.775 171.041 143.782 166.184C135.274 160.925 127.729 154.006 121.521 145.773L123.343 144.248C123.423 144.365 131.814 156.087 144.961 164.056C162.435 174.645 179.618 173.924 196.028 161.923L197.306 164.006C188.292 170.562 178.872 173.903 169.283 173.903Z" fill="#3F77BF"/>
<g opacity="0.74">
<path opacity="0.74" d="M132.518 192.895L135.723 171.271L135.731 235.219L125.109 235.487L132.518 192.895Z" fill="#3F77BF"/>
</g>
<g opacity="0.74">
<path opacity="0.74" d="M194.411 188.521L194.25 171.102L197.842 186.712L194.411 188.521Z" fill="#3F77BF"/>
</g>
<path d="M163.232 122.938L160.892 138.375C160.892 138.375 168.586 140.916 173.116 139.306V127.032L163.232 122.938Z" fill="#FCC4AC"/>
<g opacity="0.56">
<path opacity="0.56" d="M173.117 135.48C173.117 135.48 163.508 132.539 162.733 123.618L173.117 130.792V135.48Z" fill="#ED7E73"/>
</g>
<path d="M177.919 127.394C177.729 128.473 177.287 129.492 176.63 130.368C176.16 130.972 175.557 131.458 174.867 131.789C174.177 132.12 173.42 132.287 172.655 132.275C164.5 132.148 163.516 124.754 163.516 124.754C159.397 123.931 160.361 119.956 160.777 119.647C162.367 118.436 164.265 120.689 164.265 120.689C172.091 120.438 173.738 112.382 173.738 112.382C176.782 113.506 177.54 120.319 177.54 120.319C177.758 121.325 177.921 122.342 178.03 123.366C178.191 124.707 178.154 126.065 177.919 127.394Z" fill="#FCC4AC"/>
<path d="M168.949 111.109C171.326 111.109 173.253 109.35 173.253 107.18C173.253 105.01 171.326 103.25 168.949 103.25C166.572 103.25 164.645 105.01 164.645 107.18C164.645 109.35 166.572 111.109 168.949 111.109Z" fill="#6E000E"/>
<path d="M177.474 118.869L173.837 118.733C173.769 118.73 173.704 118.7 173.658 118.65C173.611 118.6 173.585 118.534 173.586 118.465C173.59 118.397 173.62 118.333 173.67 118.286C173.72 118.24 173.786 118.214 173.854 118.214L177.495 118.35C177.564 118.35 177.63 118.377 177.678 118.426C177.727 118.474 177.754 118.54 177.754 118.609C177.754 118.678 177.727 118.744 177.678 118.793C177.63 118.841 177.564 118.869 177.495 118.869H177.474Z" fill="#610008"/>
<path d="M165.987 119.569C165.924 119.565 165.864 119.537 165.819 119.492C165.775 119.446 165.749 119.386 165.746 119.322C165.743 119.259 165.763 119.197 165.803 119.147C165.843 119.098 165.9 119.064 165.962 119.054L169.587 118.72C169.622 118.714 169.658 118.715 169.693 118.723C169.728 118.732 169.761 118.747 169.789 118.769C169.818 118.791 169.842 118.818 169.859 118.849C169.877 118.881 169.888 118.915 169.891 118.951C169.894 118.987 169.89 119.023 169.879 119.057C169.868 119.091 169.85 119.122 169.826 119.149C169.802 119.176 169.773 119.197 169.74 119.212C169.707 119.227 169.672 119.235 169.636 119.235L166.012 119.569H165.987Z" fill="#610008"/>
<path d="M173.306 121.801C173.38 121.422 175.802 118.675 178.438 121.13C178.681 121.398 177.165 124.581 173.306 121.801Z" fill="white"/>
<path d="M176.96 123.28C177.979 123.279 178.804 122.54 178.803 121.63C178.802 120.721 177.975 119.984 176.956 119.985C175.937 119.986 175.111 120.725 175.113 121.635C175.114 122.545 175.941 123.281 176.96 123.28Z" fill="#79020E"/>
<path d="M165.238 121.892C165.312 121.513 167.729 118.766 170.365 121.225C170.608 121.492 169.097 124.672 165.238 121.892Z" fill="white"/>
<path d="M168.891 123.368C169.911 123.367 170.736 122.628 170.735 121.719C170.734 120.809 169.907 120.072 168.887 120.073C167.868 120.075 167.043 120.813 167.044 121.723C167.045 122.633 167.872 123.369 168.891 123.368Z" fill="#79020E"/>
<path d="M172.07 125.578C172.023 125.569 171.98 125.543 171.949 125.505C171.918 125.468 171.902 125.421 171.902 125.372C171.902 125.324 171.918 125.277 171.949 125.239C171.98 125.202 172.023 125.176 172.07 125.166C172.635 125.142 172.989 124.977 173.125 124.672C173.537 123.725 172.062 121.575 171.453 120.829C171.417 120.786 171.4 120.731 171.406 120.675C171.411 120.619 171.438 120.568 171.481 120.533C171.525 120.497 171.58 120.48 171.636 120.486C171.691 120.491 171.742 120.518 171.778 120.562C172.021 120.858 174.117 123.49 173.508 124.841C173.302 125.306 172.824 125.553 172.087 125.582L172.07 125.578Z" fill="#ED7E73"/>
<g opacity="0.66">
<path opacity="0.66" d="M169.671 125.883C169.96 124.736 169.258 123.569 168.103 123.278C166.947 122.986 165.775 123.679 165.486 124.826C165.196 125.973 165.898 127.139 167.054 127.431C168.21 127.723 169.381 127.029 169.671 125.883Z" fill="#EA9F99"/>
</g>
<g opacity="0.66">
<path opacity="0.66" d="M177.919 127.394C177.603 127.499 177.267 127.529 176.937 127.481C176.608 127.433 176.294 127.31 176.021 127.12C175.747 126.93 175.522 126.679 175.362 126.387C175.202 126.095 175.113 125.769 175.101 125.437C175.088 125.104 175.154 124.773 175.291 124.47C175.429 124.167 175.635 123.9 175.894 123.69C176.152 123.481 176.456 123.334 176.781 123.262C177.106 123.19 177.444 123.195 177.767 123.276C177.854 123.297 177.94 123.326 178.022 123.362C178.186 124.704 178.151 126.063 177.919 127.394Z" fill="#EA9F99"/>
</g>
<path d="M172.866 127.983C171.94 127.925 171.045 127.625 170.271 127.114C170.248 127.099 170.229 127.079 170.214 127.056C170.199 127.032 170.188 127.006 170.183 126.979C170.178 126.952 170.179 126.924 170.185 126.897C170.19 126.87 170.202 126.845 170.217 126.822C170.233 126.799 170.252 126.779 170.276 126.764C170.299 126.748 170.325 126.738 170.352 126.733C170.379 126.728 170.407 126.728 170.434 126.735C170.462 126.741 170.487 126.752 170.51 126.768C170.617 126.838 173.084 128.519 174.455 126.81C174.492 126.775 174.54 126.754 174.591 126.752C174.642 126.75 174.692 126.766 174.731 126.798C174.771 126.829 174.798 126.874 174.807 126.924C174.816 126.974 174.807 127.025 174.781 127.069C174.556 127.362 174.266 127.597 173.933 127.756C173.6 127.915 173.234 127.993 172.866 127.983Z" fill="#ED7E73"/>
<path d="M161.774 122.419C161.732 122.419 161.691 122.406 161.657 122.383C161.622 122.359 161.596 122.326 161.58 122.287C161.559 122.235 161.56 122.177 161.582 122.126C161.603 122.074 161.644 122.033 161.695 122.011C162.457 121.698 162.47 120.512 162.47 120.5C162.471 120.445 162.493 120.392 162.533 120.354C162.572 120.315 162.625 120.294 162.68 120.294C162.735 120.296 162.787 120.319 162.826 120.358C162.865 120.397 162.888 120.449 162.89 120.504C162.89 120.562 162.89 121.978 161.856 122.403C161.829 122.412 161.802 122.418 161.774 122.419Z" fill="#ED7E73"/>
<path d="M162.453 123.84C162.416 123.839 162.379 123.829 162.346 123.811C162.05 123.652 161.791 123.434 161.585 123.169C161.378 122.905 161.229 122.6 161.147 122.275C161.023 121.496 161.182 120.698 161.596 120.026C161.627 119.98 161.675 119.947 161.73 119.936C161.785 119.924 161.842 119.934 161.889 119.964C161.912 119.979 161.932 119.998 161.948 120.021C161.964 120.043 161.975 120.069 161.98 120.095C161.986 120.122 161.987 120.15 161.981 120.177C161.976 120.204 161.966 120.23 161.951 120.253C161.599 120.831 161.461 121.514 161.559 122.184C161.631 122.453 161.757 122.704 161.93 122.921C162.103 123.139 162.319 123.319 162.564 123.449C162.612 123.478 162.646 123.524 162.659 123.578C162.672 123.632 162.663 123.69 162.634 123.737C162.616 123.769 162.59 123.795 162.558 123.813C162.526 123.831 162.49 123.841 162.453 123.84Z" fill="#ED7E73"/>
<path d="M169.48 110.755C169.427 110.754 169.378 110.733 169.34 110.697L168.994 110.38C168.969 110.405 168.937 110.422 168.903 110.429C168.18 110.598 167.43 110.612 166.702 110.47C165.974 110.328 165.284 110.034 164.677 109.606C164.323 109.378 164.027 109.07 163.812 108.708C163.699 108.507 163.639 108.281 163.639 108.051C163.639 107.821 163.699 107.594 163.812 107.394C163.897 107.254 164.018 107.14 164.162 107.064C164.314 106.992 164.481 106.96 164.648 106.97C165.205 107.027 165.732 107.248 166.164 107.604C167.387 108.444 168.543 109.376 169.624 110.392C169.643 110.412 169.658 110.434 169.669 110.459C169.679 110.484 169.685 110.511 169.685 110.539C169.685 110.566 169.679 110.593 169.669 110.618C169.658 110.643 169.643 110.666 169.624 110.685C169.586 110.725 169.535 110.75 169.48 110.755ZM164.603 107.382C164.513 107.377 164.424 107.395 164.344 107.435C164.267 107.478 164.203 107.54 164.158 107.616C164.085 107.756 164.048 107.912 164.051 108.07C164.055 108.228 164.099 108.382 164.179 108.518C164.358 108.825 164.61 109.082 164.912 109.268C165.448 109.647 166.056 109.913 166.698 110.051C167.34 110.188 168.003 110.194 168.648 110.067C167.783 109.307 166.873 108.599 165.925 107.946C165.555 107.641 165.107 107.447 164.632 107.386L164.603 107.382Z" fill="#ED7E73"/>
<path d="M169.892 110.751C169.855 110.751 169.819 110.742 169.787 110.724C169.755 110.706 169.729 110.679 169.71 110.648C169.697 110.624 169.688 110.598 169.684 110.571C169.681 110.545 169.683 110.517 169.69 110.491C169.697 110.465 169.71 110.44 169.727 110.419C169.744 110.398 169.765 110.381 169.789 110.368C170.224 110.159 170.69 110.02 171.168 109.956C171.572 109.895 171.967 109.783 172.342 109.622C172.48 109.559 172.605 109.469 172.709 109.359C172.821 109.198 172.876 109.004 172.865 108.808C172.854 108.613 172.777 108.426 172.647 108.279C172.497 108.131 172.314 108.02 172.112 107.958C171.911 107.896 171.697 107.883 171.49 107.921C171.045 108.016 170.637 108.238 170.316 108.56C169.807 109.04 169.443 109.653 169.266 110.331C169.259 110.358 169.247 110.383 169.23 110.405C169.214 110.428 169.193 110.447 169.169 110.461C169.145 110.475 169.119 110.485 169.091 110.489C169.063 110.493 169.035 110.492 169.008 110.485C168.981 110.478 168.956 110.466 168.933 110.45C168.911 110.433 168.892 110.412 168.878 110.388C168.863 110.364 168.854 110.338 168.85 110.31C168.846 110.283 168.847 110.255 168.854 110.228C169.049 109.474 169.453 108.792 170.019 108.259C170.397 107.879 170.878 107.621 171.403 107.518C171.68 107.465 171.965 107.482 172.234 107.567C172.502 107.653 172.745 107.804 172.94 108.008C173.136 108.228 173.25 108.509 173.262 108.803C173.274 109.098 173.183 109.387 173.005 109.622C172.867 109.779 172.697 109.905 172.507 109.993C172.099 110.171 171.67 110.294 171.23 110.359C170.801 110.421 170.385 110.549 169.995 110.738C169.962 110.751 169.926 110.755 169.892 110.751Z" fill="#ED7E73"/>
<path d="M160.583 113.02H160.348C160.321 113.02 160.294 113.015 160.269 113.004C160.244 112.993 160.222 112.978 160.203 112.958C160.184 112.939 160.169 112.915 160.16 112.89C160.15 112.864 160.146 112.837 160.147 112.81C160.148 112.756 160.17 112.705 160.208 112.667C160.247 112.629 160.299 112.608 160.353 112.608C163.385 112.647 166.364 111.814 168.936 110.207C168.982 110.181 169.036 110.173 169.087 110.186C169.138 110.198 169.183 110.23 169.211 110.275C169.24 110.319 169.25 110.373 169.24 110.424C169.231 110.476 169.201 110.522 169.158 110.553C166.586 112.158 163.616 113.013 160.583 113.02Z" fill="#ED7E73"/>
<path d="M173.636 111.216C172.116 111.218 170.599 111.08 169.105 110.804C169.078 110.799 169.052 110.789 169.029 110.774C169.006 110.76 168.986 110.74 168.97 110.718C168.955 110.695 168.944 110.67 168.938 110.643C168.932 110.616 168.931 110.588 168.936 110.561C168.941 110.534 168.951 110.508 168.966 110.485C168.981 110.462 169 110.442 169.023 110.426C169.045 110.411 169.071 110.4 169.098 110.394C169.124 110.388 169.152 110.388 169.179 110.392C170.686 110.675 172.217 110.813 173.751 110.804C173.778 110.804 173.805 110.809 173.829 110.818C173.854 110.828 173.877 110.843 173.896 110.862C173.916 110.881 173.931 110.903 173.941 110.928C173.952 110.953 173.957 110.979 173.957 111.006C173.957 111.061 173.935 111.114 173.897 111.153C173.858 111.192 173.806 111.215 173.751 111.216H173.636Z" fill="#ED7E73"/>
<path d="M174.681 228.633C177.198 229.052 179.772 228.988 182.264 228.443C184.595 227.933 183.611 224.358 181.28 224.868C179.437 225.283 177.532 225.347 175.666 225.058C174.669 224.901 173.685 225.317 173.384 226.351C173.133 227.233 173.693 228.476 174.681 228.633Z" fill="#FCC4AC"/>
<path d="M532.173 374.666L530.715 357.89H556.935L555.963 374.867L532.173 374.666Z" fill="#FCC4AC"/>
<g opacity="0.58">
<path opacity="0.58" d="M530.715 361.481L556.449 366.317L556.935 360.472L530.715 361.481Z" fill="#F05B4D"/>
</g>
<path d="M479.012 372.763L484.173 345.579L458.81 343.244L458.163 371.922L479.012 372.763Z" fill="#FCC4AC"/>
<g opacity="0.58">
<path opacity="0.58" d="M481.2 361.086L458.25 368.199L458.374 359.645L481.2 361.086Z" fill="#F05B4D"/>
</g>
<path d="M552.515 123.011C552.515 123.011 567.042 166.039 561.687 250.523V360.287L523.869 361.741L513.774 200.999L486.797 361.218L446.738 360.246L486.018 126.224L552.515 123.011Z" fill="#39BFB2"/>
<path d="M562.598 199.541C562.598 199.541 511.09 160.358 521.219 127.201L558.876 123.117L562.598 199.541Z" fill="#39BFB2"/>
<path d="M549.331 135.89H487.138C486.865 135.89 486.603 135.782 486.41 135.589C486.217 135.396 486.109 135.134 486.109 134.861C486.109 134.588 486.217 134.326 486.41 134.133C486.603 133.939 486.865 133.831 487.138 133.831H549.331C549.604 133.831 549.866 133.939 550.059 134.133C550.252 134.326 550.361 134.588 550.361 134.861C550.361 135.134 550.252 135.396 550.059 135.589C549.866 135.782 549.604 135.89 549.331 135.89Z" fill="#007C80"/>
<path d="M556.934 358.792C556.683 358.791 556.442 358.693 556.261 358.519C556.08 358.345 555.973 358.108 555.962 357.857L548.194 142.501C548.185 142.243 548.279 141.992 548.454 141.803C548.63 141.614 548.874 141.503 549.132 141.494C549.389 141.485 549.64 141.578 549.829 141.754C550.018 141.929 550.129 142.173 550.139 142.431L557.906 357.787C557.914 358.045 557.82 358.295 557.644 358.483C557.468 358.671 557.225 358.782 556.967 358.792H556.934Z" fill="#007C80"/>
<path d="M470.915 73.8705C470.915 73.8705 481.92 52.4283 486.817 51.1145C490.936 50.0106 503.918 46.5385 503.918 46.5385L528.281 45.4718L550.728 48.9562C553.636 49.407 556.372 50.6245 558.654 52.4835C560.936 54.3425 562.681 56.7758 563.71 59.5331L575.906 92.1535L551.605 95.4814L552.577 126.228H486.06L489.458 92.726L470.915 73.8705Z" fill="#F2A922"/>
<path d="M514.001 88.5908C512.449 86.3942 510.603 84.4208 508.515 82.7257C507.024 81.5478 504.808 81.1647 503.366 82.7257C502.156 84.0437 501.768 86.6138 503.366 87.8782C504.253 88.5755 505.094 89.3294 505.883 90.1353C506.254 90.5184 506.616 90.9138 506.962 91.3215C507.119 91.5027 507.267 91.684 507.419 91.8693C507.007 91.3792 507.703 92.2523 507.712 92.2812C508.828 93.8216 510.928 94.7277 512.691 93.5909C514.215 92.6066 515.195 90.2548 514.001 88.6073V88.5908Z" fill="#FDFDFF"/>
<path d="M505.916 64.8216C503.145 65.7843 500.444 66.9361 497.831 68.269C496.08 69.1627 495.574 71.6216 496.525 73.2526C497.567 75.0319 499.75 75.4561 501.505 74.5583C503.557 73.5086 505.679 72.6017 507.856 71.844C509.709 71.1974 510.945 69.3522 510.397 67.367C509.903 65.563 507.782 64.1708 505.916 64.8216Z" fill="#FDFDFF"/>
<path d="M533.474 67.9559L532.968 62.6016C532.791 60.7111 531.419 58.8659 529.327 58.9606C527.506 59.043 525.492 60.571 525.686 62.6016L526.188 67.9559C526.37 69.8464 527.737 71.6916 529.833 71.5969C531.65 71.5145 533.664 69.9865 533.474 67.9559Z" fill="#FDFDFF"/>
<path d="M528.598 90.1724L532.033 94.9995C533.136 96.5482 535.262 97.4378 537.016 96.3052C538.553 95.3167 539.487 92.9855 538.322 91.3256L534.883 86.4655C533.783 84.9169 531.658 84.0272 529.903 85.1599C528.367 86.1484 527.432 88.4796 528.598 90.1394V90.1724Z" fill="#FDFDFF"/>
<path d="M499.734 108.497L492.493 112.904C488.494 115.33 492.147 121.631 496.171 119.189L503.432 114.786C507.432 112.356 503.774 106.054 499.754 108.497H499.734Z" fill="#FDFDFF"/>
<path d="M523.75 124.934L528.124 130.289C529.335 131.772 532.033 131.64 533.273 130.289C534.718 128.715 534.566 126.718 533.273 125.14L528.903 119.786C527.692 118.303 524.994 118.435 523.75 119.786C522.309 121.355 522.461 123.357 523.75 124.934Z" fill="#FDFDFF"/>
<path d="M558.104 66.3797C557.159 68.3137 556.657 70.4341 556.634 72.5866C556.634 74.4936 558.31 76.3182 560.275 76.2276C561.235 76.2107 562.152 75.8216 562.831 75.1424C563.51 74.4633 563.899 73.547 563.916 72.5866C563.916 72.286 563.916 71.9853 563.945 71.6846C563.99 71.2728 563.982 71.2728 563.945 71.7546C563.969 71.6064 564.002 71.4622 564.035 71.3139C564.101 71.0174 564.18 70.7291 564.274 70.4408C564.315 70.2966 564.365 70.1566 564.418 70.0289C564.237 70.4408 564.237 70.4408 564.418 70.0701C565.242 68.3443 564.958 66.0626 563.113 65.0864C561.498 64.2338 558.994 64.551 558.129 66.392L558.104 66.3797Z" fill="#FDFDFF"/>
<path d="M550.322 49.8565C547.366 49.6677 544.402 50.0409 541.586 50.9562C540.663 51.2271 539.882 51.8459 539.407 52.682C538.932 53.5182 538.801 54.5061 539.04 55.4373C539.547 57.2702 541.639 58.5882 543.522 57.9786C545.713 57.2641 548.023 56.9843 550.322 57.1548C552.286 57.2825 553.963 55.3879 553.963 53.5139C553.963 51.4545 552.29 50.0006 550.322 49.8729V49.8565Z" fill="#FDFDFF"/>
<path d="M497.094 51.8352C496.801 51.7972 496.511 51.7408 496.225 51.6663C496.093 51.6334 495.253 51.2833 495.813 51.5634C496.373 51.8434 495.558 51.4151 495.459 51.3574C495.236 51.2256 494.446 50.5955 495.294 51.2874C494.595 50.6299 493.679 50.2506 492.72 50.2207C491.756 50.2279 490.832 50.6106 490.146 51.2874C488.91 52.6219 488.568 55.1508 490.146 56.4399C491.608 57.6303 493.247 58.5899 495.142 58.8576C496.155 59.0018 497.028 59.0306 497.951 58.4911C498.784 58.0029 499.39 57.2039 499.635 56.2694C499.88 55.335 499.743 54.3415 499.256 53.5074C498.779 52.7701 497.992 51.967 497.082 51.8352H497.094Z" fill="#FDFDFF"/>
<path d="M488.924 67.4701L482.618 63.096C481 61.9716 478.574 62.7953 477.635 64.4017C476.576 66.2098 477.322 68.2609 478.94 69.3812L485.217 73.7594C486.832 74.8797 489.262 74.056 490.197 72.4497C491.26 70.6415 490.514 68.5945 488.891 67.4701H488.924Z" fill="#FDFDFF"/>
<path d="M512.263 11.4757C512.263 11.4757 504.94 13.6546 503.951 16.8301C502.963 20.0056 504.857 21.5831 504.857 21.5831L519.248 33.2638C519.248 33.2638 531.637 23.3789 525.723 17.6127C525.71 17.6127 521.756 8.90154 512.263 11.4757Z" fill="#6E000E"/>
<path d="M503.939 46.5138C503.939 46.5138 517.992 56.0198 528.289 45.4594C528.289 45.4594 521.489 38.6141 519.227 30.9491C518.787 29.5143 518.546 28.0259 518.511 26.5256C517.338 28.423 515.865 30.1173 514.149 31.5422C512.625 32.7202 510.854 33.5192 509.009 33.0538C509.008 34.5311 508.88 36.0056 508.626 37.4608C508.107 40.5499 506.863 44.4544 503.939 46.5138Z" fill="#FCC4AC"/>
<g opacity="0.63">
<path opacity="0.63" d="M508.634 37.4526C510.847 37.5371 513.035 36.9635 514.922 35.8045C516.809 34.6454 518.31 32.9529 519.236 30.9409L514.157 31.534C512.633 32.7119 510.862 33.511 509.017 33.0456C509.016 34.5229 508.888 35.9973 508.634 37.4526Z" fill="#F05B4D"/>
</g>
<path d="M505.261 26.6574C505.464 27.8404 505.791 28.9987 506.237 30.113C506.986 31.9211 508.123 33.408 509.837 34.0835C515.763 36.3611 520.109 29.5982 520.109 29.5982C523.816 28.2843 522.535 24.2438 522.535 24.2438C521.563 22.5675 518.939 24.285 518.939 24.285C511.245 21.0353 512.711 15.0632 512.711 15.0632C509.544 20.4999 504.886 19.4496 504.886 19.4496C504.739 21.8587 504.865 24.2766 505.261 26.6574Z" fill="#FCC4AC"/>
<path d="M515.558 22.2133H512.674C512.62 22.2133 512.567 22.1916 512.529 22.153C512.49 22.1144 512.469 22.062 512.469 22.0074C512.469 21.9527 512.49 21.9004 512.529 21.8617C512.567 21.8231 512.62 21.8014 512.674 21.8014H515.558C515.612 21.8014 515.665 21.8231 515.703 21.8617C515.742 21.9004 515.763 21.9527 515.763 22.0074C515.763 22.062 515.742 22.1144 515.703 22.153C515.665 22.1916 515.612 22.2133 515.558 22.2133Z" fill="#610008"/>
<path d="M506.908 22.6252H504.025C503.971 22.6252 503.918 22.6035 503.88 22.5648C503.841 22.5262 503.819 22.4738 503.819 22.4192C503.819 22.3646 503.841 22.3122 503.88 22.2736C503.918 22.235 503.971 22.2133 504.025 22.2133H506.908C506.963 22.2133 507.015 22.235 507.054 22.2736C507.093 22.3122 507.114 22.3646 507.114 22.4192C507.114 22.4738 507.093 22.5262 507.054 22.5648C507.015 22.6035 506.963 22.6252 506.908 22.6252Z" fill="#610008"/>
<path d="M516.686 24.8905C516.612 24.5404 514.343 22.0444 511.974 24.3509C511.756 24.598 513.202 27.51 516.686 24.8905Z" fill="white"/>
<path d="M513.35 26.3197C514.283 26.3197 515.039 25.6392 515.039 24.7998C515.039 23.9605 514.283 23.28 513.35 23.28C512.417 23.28 511.661 23.9605 511.661 24.7998C511.661 25.6392 512.417 26.3197 513.35 26.3197Z" fill="#79020E"/>
<path d="M509.404 24.8905C509.326 24.5404 507.06 22.0444 504.688 24.3509C504.474 24.598 505.92 27.51 509.404 24.8905Z" fill="white"/>
<path d="M506.064 26.3197C506.997 26.3197 507.753 25.6392 507.753 24.7998C507.753 23.9605 506.997 23.28 506.064 23.28C505.131 23.28 504.375 23.9605 504.375 24.7998C504.375 25.6392 505.131 26.3197 506.064 26.3197Z" fill="#79020E"/>
<path d="M510.1 28.4532C509.883 28.4779 509.664 28.4421 509.466 28.3498C509.268 28.2574 509.1 28.1122 508.98 27.9301C508.35 26.8304 509.907 24.4168 510.084 24.145C510.095 24.122 510.111 24.1018 510.131 24.0855C510.151 24.0693 510.174 24.0574 510.199 24.0507C510.223 24.044 510.249 24.0427 510.275 24.0467C510.3 24.0508 510.324 24.0602 510.346 24.0743C510.367 24.0883 510.385 24.1068 510.399 24.1284C510.413 24.1501 510.422 24.1744 510.425 24.1997C510.429 24.2251 510.427 24.2509 510.42 24.2756C510.413 24.3002 510.401 24.3231 510.384 24.3427C509.931 25.0264 508.848 26.9787 509.289 27.753C509.433 28.0001 509.746 28.1154 510.228 28.0907C510.271 28.0972 510.31 28.1189 510.338 28.1518C510.366 28.1846 510.382 28.2265 510.382 28.2699C510.382 28.3132 510.366 28.3551 510.338 28.388C510.31 28.4209 510.271 28.4425 510.228 28.449L510.1 28.4532Z" fill="#F05B4D"/>
<path d="M510.409 31.5546C510.36 31.5551 510.311 31.5375 510.273 31.5051C510.252 31.4853 510.234 31.4611 510.222 31.4342C510.21 31.4073 510.204 31.3781 510.203 31.3486V30.4507C510.203 30.3961 510.225 30.3438 510.264 30.3051C510.302 30.2665 510.355 30.2448 510.409 30.2448C510.464 30.2448 510.516 30.2665 510.555 30.3051C510.594 30.3438 510.615 30.3961 510.615 30.4507V31.0974C510.915 31.0329 511.183 30.8635 511.369 30.6196C511.498 30.4402 511.578 30.2299 511.6 30.01C510.801 30.4713 509.87 30.0718 509.441 29.7506C509.42 29.7346 509.401 29.7145 509.387 29.6914C509.373 29.6683 509.363 29.6426 509.359 29.6158C509.355 29.589 509.356 29.5617 509.362 29.5353C509.369 29.509 509.38 29.4841 509.396 29.4623C509.43 29.4195 509.478 29.3913 509.532 29.3836C509.586 29.3759 509.64 29.3893 509.684 29.4211C509.734 29.454 510.842 30.2448 511.657 29.4458C511.685 29.4193 511.719 29.4007 511.756 29.392C511.793 29.3833 511.831 29.3848 511.867 29.3964C511.903 29.4078 511.935 29.4288 511.96 29.4571C511.985 29.4855 512.001 29.52 512.007 29.557C512.069 30.0148 511.961 30.4794 511.703 30.8626C511.551 31.0581 511.36 31.2201 511.142 31.3384C510.925 31.4568 510.685 31.529 510.438 31.5504L510.409 31.5546Z" fill="#F05B4D"/>
<g opacity="0.66">
<path opacity="0.66" d="M514.849 30.1171C515.861 30.1171 516.682 29.2965 516.682 28.2843C516.682 27.272 515.861 26.4514 514.849 26.4514C513.837 26.4514 513.016 27.272 513.016 28.2843C513.016 29.2965 513.837 30.1171 514.849 30.1171Z" fill="#EA9F99"/>
</g>
<g opacity="0.66">
<path opacity="0.66" d="M505.261 26.6574C505.464 27.8404 505.791 28.9987 506.237 30.113C506.704 30.0695 507.137 29.8487 507.447 29.4959C507.757 29.143 507.92 28.6851 507.902 28.2159C507.885 27.7468 507.688 27.3021 507.353 26.9732C507.019 26.6443 506.57 26.4562 506.101 26.4474C505.808 26.4469 505.519 26.5191 505.261 26.6574Z" fill="#EA9F99"/>
</g>
<path d="M520.521 28.4614C520.491 28.4624 520.462 28.4557 520.436 28.442C520.41 28.4283 520.388 28.408 520.372 28.3831C520.359 28.3639 520.349 28.3421 520.344 28.319C520.339 28.2959 520.339 28.2721 520.344 28.2489C520.348 28.2258 520.358 28.2038 520.371 28.1844C520.384 28.165 520.402 28.1485 520.422 28.136C521.246 27.58 521.802 26.0767 521.88 25.2241C521.887 25.1625 521.881 25.1 521.861 25.041C521.842 24.9821 521.811 24.9279 521.769 24.8822C521.493 24.5527 520.764 24.4374 520.508 24.4209C520.482 24.4226 520.457 24.4188 520.432 24.4097C520.408 24.4005 520.386 24.3863 520.368 24.368C520.35 24.3497 520.336 24.3277 520.327 24.3035C520.318 24.2793 520.314 24.2534 520.316 24.2276C520.317 24.2018 520.325 24.1767 520.337 24.154C520.349 24.1312 520.366 24.1114 520.387 24.0957C520.407 24.0801 520.431 24.0691 520.456 24.0634C520.482 24.0576 520.508 24.0574 520.533 24.0626C520.574 24.0626 521.608 24.1409 522.04 24.6475C522.114 24.729 522.169 24.825 522.203 24.9293C522.237 25.0335 522.249 25.1438 522.238 25.2529C522.156 26.1549 521.583 27.7859 520.619 28.4326C520.59 28.452 520.556 28.462 520.521 28.4614Z" fill="#F05B4D"/>
<path d="M521.765 26.6286C521.695 26.6286 520.887 26.5998 520.043 25.2529C520.019 25.2121 520.012 25.1639 520.023 25.1179C520.034 25.072 520.061 25.0319 520.101 25.0058C520.121 24.9931 520.143 24.9844 520.166 24.9804C520.19 24.9764 520.213 24.9771 520.236 24.9825C520.259 24.9879 520.281 24.9978 520.3 25.0117C520.319 25.0256 520.336 25.0432 520.348 25.0635C521.093 26.2497 521.756 26.2703 521.765 26.2703C521.812 26.2703 521.857 26.2889 521.89 26.3221C521.923 26.3553 521.942 26.4004 521.942 26.4474C521.942 26.4706 521.938 26.4938 521.93 26.5155C521.921 26.5372 521.909 26.557 521.893 26.5738C521.877 26.5906 521.858 26.6041 521.836 26.6135C521.815 26.6229 521.792 26.6281 521.769 26.6286H521.765Z" fill="#F05B4D"/>
<g opacity="0.71">
<path opacity="0.71" d="M489.61 92.726V71.3621L484.338 87.3139L489.61 92.726Z" fill="#C98308"/>
</g>
<path d="M479.012 372.763L477.818 383.883L477.06 395.552L428.97 398.995C428.556 399.025 428.144 398.917 427.798 398.687C427.453 398.457 427.194 398.118 427.063 397.725C426.931 397.331 426.935 396.905 427.073 396.514C427.211 396.122 427.476 395.788 427.825 395.564C429.921 394.254 449.028 390.028 452.125 387.327C452.125 387.327 458.802 381.025 458.163 371.927L479.012 372.763Z" fill="#6592CC"/>
<g opacity="0.62">
<path opacity="0.62" d="M513.799 200.999L509.837 174.553L507.818 236.511L513.799 200.999Z" fill="#007C80"/>
</g>
<path d="M434.386 77.2272L441.507 118.592L441.919 118.509C451.639 116.837 460.672 122.167 462.101 130.417C463.53 138.666 456.788 146.71 447.068 148.382L446.656 148.444L453.76 189.718L494.865 182.642C493.329 172.86 498.716 164.108 506.921 162.732C515.125 161.356 522.939 167.769 524.726 177.506L566.264 170.36L552.215 88.772C551.516 84.7118 550.024 80.829 547.824 77.3456C545.624 73.8621 542.759 70.8463 539.393 68.4703C536.027 66.0943 532.226 64.4047 528.207 63.4981C524.188 62.5915 520.03 62.4856 515.97 63.1865L434.386 77.2272Z" fill="#3F77BF"/>
<path d="M288 246.871L281.574 209.412L281.202 209.486C272.431 211 264.281 206.174 262.991 198.703C261.702 191.232 267.786 183.948 276.557 182.433L276.928 182.377L270.517 145L233.426 151.408C234.813 160.266 229.951 168.192 222.548 169.438C215.145 170.684 208.094 164.877 206.481 156.059L169 162.53L181.677 236.416C182.308 240.093 183.654 243.609 185.639 246.764C187.625 249.918 190.21 252.649 193.247 254.801C196.284 256.953 199.714 258.483 203.34 259.304C206.967 260.125 210.719 260.221 214.383 259.586L288 246.871Z" fill="#FDFDFF"/>
<path d="M578.479 122.71L575.526 125.058C562.845 135.153 537.564 155.187 535.459 156.171L534.965 157.151C535.056 156.947 535.114 156.731 535.138 156.509C535.2 156.418 535.253 156.327 535.311 156.237L535.245 156.27L535.15 156.208C535.158 156.308 535.158 156.409 535.15 156.509C532.625 160.343 528.461 164.437 524.536 166.175C521.991 167.3 520.006 164.577 522.592 163.445C524.224 162.714 525.721 161.713 527.02 160.483C526.341 161.061 525.594 161.554 524.796 161.95C521.756 163.42 518.346 163.23 515.03 163.704C511.632 164.19 511.323 161.604 514.038 160.87L515.088 160.594C513.33 160.595 511.578 160.387 509.869 159.977C507.81 159.499 508.115 156.064 511.13 156.916C512.504 157.297 513.939 157.409 515.356 157.246C514.532 157.102 513.675 156.921 512.806 156.731C510.059 156.134 510.928 153.135 513.675 153.733C516.438 154.295 519.312 153.807 521.735 152.365C522.496 151.885 523.181 151.294 523.766 150.611C522.503 150.785 521.223 150.785 519.96 150.611C517.205 150.277 516.101 147.658 519.417 147.176C521.814 146.821 524.664 145.899 527.197 145.355L559.735 114.213L554.792 95.0448L575.868 92.1617L579.707 107.566L581.354 114.131C581.748 115.686 581.686 117.322 581.177 118.843C580.667 120.364 579.731 121.707 578.479 122.71Z" fill="#FCC4AC"/>
<path d="M531.938 371.894C532.761 372.207 528.107 385.444 527.634 392.636C527.611 393.028 527.669 393.421 527.804 393.79C527.939 394.159 528.148 394.496 528.418 394.782C528.688 395.067 529.013 395.294 529.374 395.449C529.735 395.604 530.124 395.684 530.517 395.683H556.494C557.258 395.683 557.992 395.38 558.532 394.839C559.073 394.298 559.377 393.565 559.377 392.8C559.377 387.821 558.965 377.631 556.082 371.91L531.938 371.894Z" fill="#6592CC"/>
<g opacity="0.63">
<path opacity="0.63" d="M559.628 114.061H571.572L558.475 109.201L559.628 114.061Z" fill="#F05B4D"/>
</g>
<path d="M515.632 157.444C515.467 157.444 515.364 157.444 515.335 157.444C515.281 157.444 515.228 157.422 515.19 157.383C515.151 157.345 515.129 157.292 515.129 157.238C515.129 157.183 515.151 157.131 515.19 157.092C515.228 157.053 515.281 157.032 515.335 157.032C515.389 157.032 521.003 157.205 524.335 154.272C524.354 154.253 524.376 154.238 524.401 154.227C524.426 154.217 524.452 154.212 524.479 154.212C524.506 154.212 524.532 154.217 524.557 154.227C524.582 154.238 524.604 154.253 524.623 154.272C524.642 154.291 524.658 154.314 524.668 154.339C524.679 154.364 524.684 154.391 524.684 154.418C524.684 154.446 524.679 154.473 524.668 154.498C524.658 154.523 524.642 154.546 524.623 154.565C521.575 157.258 516.872 157.444 515.632 157.444Z" fill="#F05B4D"/>
<path d="M516.921 160.883C516.296 160.887 515.672 160.856 515.051 160.788C515.024 160.785 514.997 160.777 514.974 160.763C514.95 160.75 514.929 160.732 514.912 160.711C514.895 160.689 514.883 160.665 514.875 160.638C514.868 160.612 514.866 160.584 514.87 160.557C514.877 160.503 514.905 160.454 514.948 160.421C514.992 160.388 515.046 160.373 515.1 160.38C515.166 160.38 521.974 161.167 525.294 157.715C525.312 157.694 525.334 157.676 525.36 157.663C525.385 157.65 525.413 157.643 525.441 157.641C525.469 157.639 525.498 157.644 525.524 157.653C525.551 157.663 525.575 157.678 525.595 157.698C525.616 157.717 525.632 157.741 525.643 157.767C525.654 157.793 525.659 157.821 525.659 157.85C525.658 157.878 525.652 157.906 525.64 157.932C525.629 157.958 525.612 157.981 525.591 158C523.21 160.479 519.264 160.883 516.921 160.883Z" fill="#F05B4D"/>
<g opacity="0.63">
<path opacity="0.63" d="M578.48 122.71L575.527 125.058C574.987 120.272 574.559 110.408 579.745 107.57L581.392 114.135C581.781 115.693 581.713 117.33 581.197 118.851C580.68 120.371 579.737 121.711 578.48 122.71Z" fill="#F05B4D"/>
</g>
<path d="M200.712 219.543C200.972 219.66 201.199 219.84 201.373 220.066C201.546 220.292 201.661 220.558 201.707 220.84C201.752 221.121 201.728 221.41 201.635 221.679C201.542 221.949 201.383 222.191 201.173 222.385C199.852 223.718 198.275 224.771 196.536 225.478C197.108 226.442 196.915 227.871 195.51 228.184C191.762 229.028 181.482 228.365 179.904 228.789C171.341 231.092 145.896 238.567 127.646 238.567C116.571 238.567 108.139 235.684 107.761 227.204C106.624 201.997 109.136 189.946 109.136 189.946L131.279 192.623L128.675 215.123L178.512 213.67C178.619 213.565 178.736 213.471 178.862 213.389C181.624 211.679 184.749 210.64 187.985 210.358C188.229 210.29 188.484 210.273 188.735 210.309C189.093 210.309 189.456 210.309 189.818 210.272C194.2 209.786 191.717 213.497 189.604 213.978C189.43 214.072 189.246 214.146 189.056 214.201C188.78 214.341 188.508 214.489 188.232 214.646H189.414C191 214.67 192.12 214.815 193.422 213.855C194.246 213.241 194.942 212.698 195.98 212.492C197.677 212.154 198.109 213.637 197.475 215.132C197.17 215.857 195.897 217.092 195.415 217.636C197.085 217.057 198.71 216.359 200.28 215.548C202.372 214.399 203.295 216.141 202.059 217.994C201.738 218.493 201.173 219.304 200.712 219.543Z" fill="#FCC4AC"/>
<g opacity="0.56">
<path opacity="0.56" d="M128.667 215.124L119.573 221.454L135.731 214.918L128.667 215.124Z" fill="#ED7E73"/>
</g>
<path d="M189.324 218.797C188.528 218.802 187.733 218.739 186.947 218.608C186.918 218.606 186.889 218.598 186.863 218.584C186.837 218.571 186.814 218.552 186.796 218.529C186.778 218.506 186.764 218.479 186.757 218.45C186.75 218.422 186.749 218.392 186.753 218.363C186.758 218.334 186.769 218.306 186.786 218.282C186.802 218.257 186.823 218.237 186.848 218.221C186.873 218.205 186.901 218.195 186.93 218.19C186.959 218.186 186.989 218.188 187.017 218.196C190.901 218.867 195.3 217.496 195.345 217.479C195.372 217.471 195.4 217.468 195.427 217.471C195.455 217.473 195.482 217.481 195.506 217.494C195.531 217.507 195.553 217.525 195.57 217.547C195.588 217.568 195.601 217.593 195.609 217.619C195.626 217.672 195.621 217.73 195.596 217.779C195.57 217.829 195.526 217.866 195.473 217.883C193.473 218.46 191.405 218.767 189.324 218.797Z" fill="#ED7E73"/>
<path d="M190.205 222.854C189.093 222.868 187.985 222.729 186.91 222.442C186.884 222.436 186.859 222.424 186.837 222.407C186.815 222.391 186.797 222.37 186.783 222.346C186.77 222.322 186.761 222.296 186.758 222.268C186.756 222.241 186.758 222.213 186.766 222.187C186.773 222.16 186.785 222.135 186.802 222.113C186.818 222.091 186.839 222.073 186.863 222.059C186.886 222.045 186.913 222.036 186.94 222.033C186.967 222.029 186.995 222.031 187.022 222.039C193.311 223.777 200.502 219.419 200.576 219.374C200.624 219.346 200.681 219.338 200.735 219.351C200.788 219.364 200.835 219.397 200.865 219.444C200.894 219.492 200.902 219.549 200.889 219.603C200.876 219.657 200.842 219.703 200.795 219.732C200.749 219.757 195.642 222.854 190.205 222.854Z" fill="#ED7E73"/>
<path d="M190.934 226.648C189.484 226.648 188.014 226.401 186.869 225.651C186.846 225.636 186.826 225.617 186.81 225.595C186.794 225.572 186.783 225.547 186.777 225.52C186.772 225.493 186.771 225.465 186.776 225.438C186.781 225.411 186.792 225.386 186.807 225.363C186.822 225.339 186.841 225.319 186.863 225.304C186.886 225.288 186.911 225.277 186.938 225.271C186.965 225.265 186.993 225.265 187.02 225.27C187.047 225.275 187.073 225.286 187.095 225.301C190.267 227.36 196.391 225.301 196.453 225.276C196.508 225.258 196.568 225.261 196.619 225.287C196.671 225.312 196.711 225.357 196.729 225.412C196.748 225.467 196.744 225.526 196.718 225.578C196.693 225.63 196.648 225.669 196.593 225.688C194.764 226.283 192.857 226.606 190.934 226.648Z" fill="#ED7E73"/>
<g opacity="0.56">
<path opacity="0.56" d="M127.65 238.567C116.575 238.567 108.144 235.684 107.765 227.2C107.757 227.2 121.999 227.331 127.65 238.567Z" fill="#ED7E73"/>
</g>
</svg>
