<svg width="85" height="85" viewBox="0 0 85 85" fill="none" xmlns="http://www.w3.org/2000/svg">
<path d="M77.0313 15.9375C76.3335 15.937 75.6423 16.0739 74.9974 16.3405C74.3525 16.6072 73.7665 16.9982 73.2727 17.4914C72.8804 17.9042 72.5535 18.3744 72.3032 18.886C70.9233 16.2558 68.9109 14.0101 66.4473 12.3511C63.9837 10.692 61.1462 9.67166 58.1902 9.38185C55.2342 9.09205 52.2525 9.54191 49.5136 10.6909C46.7747 11.8399 44.3645 13.652 42.5001 15.9641C40.6356 13.652 38.2254 11.8399 35.4865 10.6909C32.7476 9.54191 29.766 9.09205 26.81 9.38185C23.854 9.67166 21.0165 10.692 18.5529 12.3511C16.0892 14.0101 14.0769 16.2558 12.6969 18.886C12.4514 18.3717 12.124 17.9007 11.7274 17.4914C10.9844 16.7476 10.0375 16.241 9.00639 16.0356C7.97532 15.8303 6.9065 15.9355 5.93525 16.338C4.964 16.7404 4.134 17.422 3.55031 18.2964C2.96662 19.1708 2.6555 20.1987 2.65632 21.25V51.7969C2.65316 52.091 2.75169 52.3772 2.93523 52.6071L11.9532 64.2016V74.375C11.9514 74.5499 11.9846 74.7234 12.0507 74.8854C12.1168 75.0473 12.2146 75.1944 12.3382 75.3181C12.4619 75.4418 12.609 75.5396 12.771 75.6057C12.9329 75.6718 13.1064 75.7049 13.2813 75.7031H30.5469C30.7344 75.7041 30.92 75.6655 31.0916 75.59C31.2633 75.5145 31.4171 75.4037 31.543 75.2649C31.6676 75.1253 31.7605 74.9605 31.8155 74.7817C31.8705 74.6029 31.8863 74.4144 31.8618 74.2289L30.5469 62.3422V56.2594C34.178 58.6219 38.014 60.6533 42.0087 62.3289C42.1648 62.3917 42.3318 62.4233 42.5001 62.4219C42.6641 62.4232 42.8267 62.3916 42.9782 62.3289C46.9805 60.7081 50.8223 58.7161 54.4532 56.3789V62.3422L53.1384 74.2289C53.1194 74.4152 53.1392 74.6033 53.1963 74.7815C53.2534 74.9598 53.3467 75.1243 53.4704 75.2649C53.5946 75.4025 53.7462 75.5125 53.9154 75.588C54.0847 75.6635 54.2679 75.7027 54.4532 75.7031H71.7188C71.8937 75.7049 72.0672 75.6718 72.2292 75.6057C72.3911 75.5396 72.5382 75.4418 72.6619 75.3181C72.7856 75.1944 72.8834 75.0473 72.9495 74.8854C73.0156 74.7234 73.0487 74.5499 73.047 74.375V64.2016L82.0649 52.6071C82.2485 52.3772 82.347 52.091 82.3438 51.7969V21.25C82.3438 19.8411 81.7841 18.4898 80.7878 17.4935C79.7915 16.4972 78.4403 15.9375 77.0313 15.9375ZM14.6094 73.0469V63.75C14.6126 63.4559 14.5141 63.1697 14.3305 62.9399L5.31257 51.3453V21.25C5.31468 20.5462 5.59521 19.8718 6.09289 19.3741C6.59058 18.8764 7.26499 18.5959 7.96882 18.5938C8.67169 18.599 9.3443 18.8805 9.84131 19.3775C10.3383 19.8745 10.6199 20.5472 10.6251 21.25V34.2922C9.75309 35.1759 9.21741 36.3366 9.11069 37.5735C9.00398 38.8104 9.33295 40.0457 10.0407 41.0656L17.5048 51.7172L19.6829 50.2031L12.2188 39.5516C11.8161 38.9696 11.6599 38.252 11.7843 37.5553C11.9087 36.8586 12.3036 36.2394 12.8829 35.8328C13.4644 35.4586 14.1652 35.3165 14.8466 35.4346C15.5279 35.5526 16.1401 35.9223 16.5618 36.4703L27.8907 53.5235V62.4219C27.8885 62.471 27.893 62.5201 27.904 62.568L29.0594 73.0469H14.6094ZM54.4532 53.125V53.2047C50.6827 55.7231 46.6855 57.884 42.5134 59.6594C38.3252 57.8383 34.3148 55.6331 30.5337 53.0719C30.5305 52.8302 30.4566 52.5947 30.3212 52.3946L18.7532 34.9696C18.2578 34.2719 17.6027 33.703 16.8425 33.3102C16.0824 32.9174 15.2393 32.7122 14.3837 32.7117C14.2593 32.7135 14.1351 32.7224 14.0118 32.7383C13.5318 30.9447 13.2863 29.0965 13.2813 27.2399V27.2133C13.2841 23.9174 14.353 20.7109 16.3283 18.0725C18.3035 15.4341 21.0793 13.5055 24.241 12.5746C27.4027 11.6438 30.7806 11.7606 33.8705 12.9077C36.9603 14.0548 39.5962 16.1706 41.3844 18.9391C41.5048 19.1255 41.67 19.2787 41.8649 19.3849C42.0598 19.491 42.2782 19.5466 42.5001 19.5466C42.722 19.5466 42.9403 19.491 43.1352 19.3849C43.3301 19.2787 43.4953 19.1255 43.6157 18.9391C45.4046 16.1696 48.0417 14.0533 51.1328 12.9065C54.2239 11.7597 57.6032 11.644 60.7655 12.5765C63.9279 13.5091 66.7036 15.4399 68.6779 18.0805C70.6521 20.7211 71.7189 23.9296 71.7188 27.2266C71.7171 29.0861 71.4806 30.938 71.0149 32.7383C70.8821 32.725 70.7493 32.7117 70.6165 32.7117C69.7547 32.7126 68.906 32.922 68.1428 33.3221C67.3796 33.7222 66.7246 34.3011 66.2337 35.0094L54.679 52.3946C54.5313 52.6095 54.4526 52.8643 54.4532 53.125ZM79.6876 51.3453L70.6696 62.9399C70.4917 63.1728 70.3939 63.457 70.3907 63.75V73.0469H55.9407L57.1095 62.568V53.5235L68.4251 36.4969C68.8411 35.9335 69.4579 35.5517 70.1477 35.4306C70.8375 35.3094 71.5474 35.4582 72.1305 35.8461C72.7059 36.253 73.0972 36.8708 73.2191 37.5648C73.341 38.2589 73.1836 38.973 72.7813 39.5516L65.3173 50.2031L67.4954 51.7172L74.9594 41.0656C75.6677 40.0458 75.997 38.8104 75.8903 37.5734C75.7835 36.3364 75.2475 35.1756 74.3751 34.2922V21.25C74.3803 20.5472 74.6618 19.8745 75.1588 19.3775C75.6559 18.8805 76.3285 18.599 77.0313 18.5938C77.7352 18.5959 78.4096 18.8764 78.9073 19.3741C79.4049 19.8718 79.6855 20.5462 79.6876 21.25V51.3453Z" fill="#F23827"/>
</svg>
