<svg width="90" height="90" viewBox="0 0 90 90" fill="none" xmlns="http://www.w3.org/2000/svg">
<path d="M45 56.25C44.7585 56.2492 44.5212 56.1863 44.311 56.0672C43.9875 55.8844 36.4641 51.5953 36.4641 43.5937C36.4641 35.5922 43.9875 31.289 44.311 31.1203C44.5248 30.9969 44.7673 30.9319 45.0141 30.9319C45.261 30.9319 45.5035 30.9969 45.7172 31.1203C46.0407 31.3031 53.5641 35.5922 53.5641 43.5937C53.5641 51.5953 46.0407 55.8984 45.7172 56.0672C45.4988 56.191 45.2511 56.2542 45 56.25ZM45 34.0172C43.3547 35.1703 39.2907 38.5172 39.2907 43.5937C39.2907 48.6703 43.3547 52.0312 45 53.1703C46.6454 52.0172 50.7094 48.6703 50.7094 43.5937C50.7094 38.5172 46.6594 35.1562 45 34.0172Z" fill="#39BFB2"/>
<path d="M46.4062 40.7812H43.5938V59.0625H46.4062V40.7812Z" fill="#39BFB2"/>
<path d="M45 42.1875C44.815 42.1886 44.6315 42.1531 44.4602 42.0831C44.2888 42.0132 44.133 41.91 44.0016 41.7797L41.1891 38.9672L43.1719 36.9844L45 38.7985L46.8141 36.9844L48.7969 38.9672L45.9844 41.7797C45.7225 42.0395 45.3689 42.186 45 42.1875ZM45 50.625C44.815 50.6261 44.6315 50.5906 44.4602 50.5206C44.2888 50.4507 44.133 50.3475 44.0016 50.2172L39.7828 45.9985L41.7657 44.0156L45 47.236L48.2203 44.0156L50.2032 45.9985L45.9844 50.2172C45.7225 50.477 45.3689 50.6235 45 50.625ZM63.2813 28.125H47.8125C47.5332 28.1266 47.2597 28.0451 47.027 27.8906C46.7942 27.7362 46.6127 27.516 46.5056 27.258C46.3985 27.0001 46.3706 26.7161 46.4256 26.4422C46.4805 26.1683 46.6158 25.917 46.8141 25.7203L48.6422 23.9063L45 20.2641L37.561 27.7031C37.2975 27.9651 36.9411 28.1121 36.5696 28.1121C36.198 28.1121 35.8416 27.9651 35.5781 27.7031L25.7344 17.8594C25.4725 17.5959 25.3255 17.2395 25.3255 16.868C25.3255 16.4965 25.4725 16.1401 25.7344 15.8766L34.1719 7.43909C34.4338 7.17929 34.7874 7.03283 35.1563 7.03127H54.8438C55.0288 7.0302 55.2123 7.06568 55.3836 7.13566C55.555 7.20564 55.7108 7.30875 55.8422 7.43909L60.4688 12.0797L62.2828 10.2656C62.4787 10.0682 62.7287 9.93322 63.0012 9.87784C63.2738 9.82245 63.5566 9.84913 63.814 9.95449C64.0714 10.0599 64.2918 10.2392 64.4473 10.4698C64.6027 10.7004 64.6864 10.9719 64.6875 11.25V26.7188C64.6875 27.0917 64.5394 27.4494 64.2756 27.7131C64.0119 27.9769 63.6542 28.125 63.2813 28.125ZM51.2016 25.3125H61.875V14.6391L61.4672 15.0469C61.2037 15.3088 60.8473 15.4558 60.4758 15.4558C60.1043 15.4558 59.7479 15.3088 59.4844 15.0469L54.2672 9.84377H38.5453L51.6094 22.9078C51.8713 23.1713 52.0183 23.5277 52.0183 23.8992C52.0183 24.2708 51.8713 24.6272 51.6094 24.8906L51.2016 25.3125ZM28.7016 16.875L36.5625 24.736L43.0172 18.2813L35.1563 10.4203L28.7016 16.875ZM78.75 64.6875H63.2813C62.9083 64.6875 62.5506 64.5394 62.2869 64.2756C62.0232 64.0119 61.875 63.6542 61.875 63.2813V47.8125C61.8734 47.5332 61.955 47.2597 62.1094 47.027C62.2638 46.7942 62.484 46.6127 62.742 46.5056C63 46.3985 63.284 46.3706 63.5579 46.4256C63.8317 46.4805 64.083 46.6158 64.2797 46.8141L66.0938 48.6422L69.736 45L62.2969 37.561C62.035 37.2975 61.888 36.9411 61.888 36.5696C61.888 36.198 62.035 35.8416 62.2969 35.5781L72.1406 25.7344C72.4041 25.4725 72.7605 25.3255 73.1321 25.3255C73.5036 25.3255 73.86 25.4725 74.1235 25.7344L82.561 34.1719C82.8208 34.4338 82.9672 34.7874 82.9688 35.1563V54.8438C82.9698 55.0288 82.9344 55.2123 82.8644 55.3836C82.7944 55.555 82.6913 55.7108 82.561 55.8422L77.9203 60.4688L79.7344 62.2828C79.9319 62.4787 80.0668 62.7287 80.1222 63.0012C80.1776 63.2738 80.1509 63.5566 80.0456 63.814C79.9402 64.0714 79.7609 64.2918 79.5303 64.4473C79.2997 64.6027 79.0281 64.6864 78.75 64.6875ZM64.6875 61.875H75.361L74.9531 61.4672C74.6912 61.2037 74.5442 60.8473 74.5442 60.4758C74.5442 60.1043 74.6912 59.7479 74.9531 59.4844L80.1563 54.2672V38.5453L67.0922 51.6094C66.8287 51.8713 66.4723 52.0183 66.1008 52.0183C65.7293 52.0183 65.3729 51.8713 65.1094 51.6094L64.6875 51.2016V61.875ZM65.2641 36.5625L71.7188 43.0172L79.5797 35.1563L73.125 28.7016L65.2641 36.5625ZM54.8438 82.9688H35.1563C34.9712 82.9698 34.7877 82.9344 34.6164 82.8644C34.4451 82.7944 34.2892 82.6913 34.1578 82.561L29.5313 77.9203L27.7172 79.7344C27.5214 79.9319 27.2714 80.0668 26.9988 80.1222C26.7263 80.1776 26.4434 80.1509 26.186 80.0456C25.9286 79.9402 25.7083 79.7609 25.5528 79.5303C25.3973 79.2997 25.3137 79.0281 25.3125 78.75V63.2813C25.3125 62.9083 25.4607 62.5506 25.7244 62.2869C25.9881 62.0232 26.3458 61.875 26.7188 61.875H42.1875C42.4668 61.8734 42.7403 61.955 42.9731 62.1094C43.2058 62.2638 43.3873 62.484 43.4945 62.742C43.6016 63 43.6294 63.284 43.5745 63.5579C43.5195 63.8317 43.3843 64.083 43.186 64.2797L41.3578 66.0938L45 69.736L52.4391 62.2969C52.7026 62.035 53.059 61.888 53.4305 61.888C53.802 61.888 54.1584 62.035 54.4219 62.2969L64.2656 72.1406C64.5276 72.4041 64.6746 72.7605 64.6746 73.1321C64.6746 73.5036 64.5276 73.86 64.2656 74.1235L55.8281 82.561C55.5662 82.8208 55.2127 82.9672 54.8438 82.9688ZM35.7328 80.1563H51.4547L38.3906 67.0922C38.1287 66.8287 37.9817 66.4723 37.9817 66.1008C37.9817 65.7293 38.1287 65.3729 38.3906 65.1094L38.7985 64.7016H28.125V75.375L28.5328 74.9672C28.7963 74.7053 29.1527 74.5583 29.5242 74.5583C29.8958 74.5583 30.2522 74.7053 30.5156 74.9672L35.7328 80.1563ZM46.9828 71.7188L54.8438 79.5797L61.2985 73.125L53.4375 65.2641L46.9828 71.7188ZM16.875 64.6875C16.69 64.6886 16.5065 64.6531 16.3352 64.5831C16.1638 64.5132 16.008 64.41 15.8766 64.2797L7.43909 55.8422C7.30875 55.7108 7.20564 55.555 7.13566 55.3836C7.06568 55.2123 7.0302 55.0288 7.03127 54.8438V35.1563C7.0302 34.9712 7.06568 34.7877 7.13566 34.6164C7.20564 34.4451 7.30875 34.2892 7.43909 34.1578L12.0797 29.5313L10.2516 27.7172C10.0533 27.5205 9.91801 27.2692 9.86307 26.9954C9.80813 26.7215 9.83599 26.4375 9.9431 26.1795C10.0502 25.9215 10.2317 25.7013 10.4645 25.5469C10.6972 25.3925 10.9707 25.3109 11.25 25.3125H26.7188C27.0917 25.3125 27.4494 25.4607 27.7131 25.7244C27.9769 25.9881 28.125 26.3458 28.125 26.7188V42.1875C28.1266 42.4668 28.0451 42.7403 27.8906 42.9731C27.7362 43.2058 27.516 43.3873 27.258 43.4945C27.0001 43.6016 26.7161 43.6294 26.4422 43.5745C26.1683 43.5195 25.917 43.3843 25.7203 43.186L23.9063 41.3578L20.2641 45L27.7031 52.4391C27.9651 52.7026 28.1121 53.059 28.1121 53.4305C28.1121 53.802 27.9651 54.1584 27.7031 54.4219L17.8594 64.2656C17.5998 64.5306 17.2459 64.6822 16.875 64.6875ZM10.4203 54.8438L16.875 61.2985L24.736 53.4375L18.2813 46.9828L10.4203 54.8438ZM9.84377 35.7328V51.4547L22.9078 38.3906C23.1713 38.1287 23.5277 37.9817 23.8992 37.9817C24.2708 37.9817 24.6272 38.1287 24.8906 38.3906L25.2985 38.7985V28.125H14.6391L15.0469 28.5328C15.3088 28.7963 15.4558 29.1527 15.4558 29.5242C15.4558 29.8958 15.3088 30.2522 15.0469 30.5156L9.84377 35.7328Z" fill="#39BFB2"/>
</svg>
