<svg width="28" height="28" viewBox="0 0 28 28" fill="none" xmlns="http://www.w3.org/2000/svg">
<path d="M23.8538 13.3812H22.125C22.0918 13.3812 22.0601 13.3681 22.0366 13.3446C22.0132 13.3212 22 13.2894 22 13.2562V8.42872C22 7.78458 21.7441 7.16682 21.2886 6.71134C20.8332 6.25586 20.2154 5.99997 19.5713 5.99997H14.7437C14.7106 5.99997 14.6788 5.98681 14.6554 5.96336C14.6319 5.93992 14.6187 5.90813 14.6187 5.87497V4.14622C14.6187 2.44997 13.275 1.02997 11.5787 1.0006C11.1678 0.99338 10.7595 1.06808 10.3777 1.22033C9.9959 1.37259 9.64824 1.59935 9.35502 1.8874C9.0618 2.17544 8.82888 2.519 8.66984 2.89802C8.51081 3.27704 8.42885 3.68394 8.42875 4.09497V5.87497C8.42875 5.90813 8.41558 5.93992 8.39214 5.96336C8.3687 5.98681 8.3369 5.99997 8.30375 5.99997H3.47625C2.82012 6.00195 2.19142 6.26348 1.72746 6.72744C1.2635 7.1914 1.00198 7.82009 1 8.47622V12.875C1 12.9081 1.01317 12.9399 1.03661 12.9634C1.06005 12.9868 1.09185 13 1.125 13H2.80688C4.6425 13 6.16188 14.5925 6.1875 16.4281C6.21375 18.295 4.71812 20 2.85687 20H1.125C1.09185 20 1.06005 20.0131 1.03661 20.0366C1.01317 20.06 1 20.0918 1 20.125V24.5237C1.00198 25.1799 1.2635 25.8086 1.72746 26.2725C2.19142 26.7365 2.82012 26.998 3.47625 27H7.875C7.90815 27 7.93995 26.9868 7.96339 26.9634C7.98683 26.9399 8 26.9081 8 26.875V25.5669C8 23.6744 9.54688 22.045 11.4375 22.0006C13.3188 21.9569 15 23.27 15 25.1431V26.875C15 26.9081 15.0132 26.9399 15.0366 26.9634C15.0601 26.9868 15.0918 27 15.125 27H19.5713C20.2154 27 20.8332 26.7441 21.2886 26.2886C21.7441 25.8331 22 25.2154 22 24.5712V19.6962C22 19.6631 22.0132 19.6313 22.0366 19.6078C22.0601 19.5844 22.0918 19.5712 22.125 19.5712H23.905C25.6319 19.5712 27 18.1543 27 16.4212C27 14.6881 25.55 13.3812 23.8538 13.3812V13.3812Z" stroke="#F2A922" stroke-width="2" stroke-linecap="round" stroke-linejoin="round"/>
</svg>
