<svg width="32" height="32" viewBox="0 0 32 32" fill="none" xmlns="http://www.w3.org/2000/svg">
<path d="M25.8538 15.3812H24.125C24.0918 15.3812 24.0601 15.3681 24.0366 15.3446C24.0132 15.3212 24 15.2894 24 15.2562V10.4287C24 9.78458 23.7441 9.16682 23.2886 8.71134C22.8332 8.25586 22.2154 7.99997 21.5713 7.99997H16.7437C16.7106 7.99997 16.6788 7.98681 16.6554 7.96336C16.6319 7.93992 16.6187 7.90813 16.6187 7.87497V6.14622C16.6187 4.44997 15.275 3.02997 13.5787 3.0006C13.1678 2.99338 12.7595 3.06808 12.3777 3.22033C11.9959 3.37259 11.6482 3.59935 11.355 3.8874C11.0618 4.17544 10.8289 4.519 10.6698 4.89802C10.5108 5.27704 10.4289 5.68394 10.4288 6.09497V7.87497C10.4288 7.90813 10.4156 7.93992 10.3921 7.96336C10.3687 7.98681 10.3369 7.99997 10.3038 7.99997H5.47625C4.82012 8.00195 4.19142 8.26348 3.72746 8.72744C3.2635 9.1914 3.00198 9.82009 3 10.4762V14.875C3 14.9081 3.01317 14.9399 3.03661 14.9634C3.06005 14.9868 3.09185 15 3.125 15H4.80688C6.6425 15 8.16188 16.5925 8.1875 18.4281C8.21375 20.295 6.71812 22 4.85687 22H3.125C3.09185 22 3.06005 22.0131 3.03661 22.0366C3.01317 22.06 3 22.0918 3 22.125V26.5237C3.00198 27.1799 3.2635 27.8086 3.72746 28.2725C4.19142 28.7365 4.82012 28.998 5.47625 29H9.875C9.90815 29 9.93995 28.9868 9.96339 28.9634C9.98683 28.9399 10 28.9081 10 28.875V27.5669C10 25.6744 11.5469 24.045 13.4375 24.0006C15.3188 23.9569 17 25.27 17 27.1431V28.875C17 28.9081 17.0132 28.9399 17.0366 28.9634C17.0601 28.9868 17.0918 29 17.125 29H21.5713C22.2154 29 22.8332 28.7441 23.2886 28.2886C23.7441 27.8331 24 27.2154 24 26.5712V21.6962C24 21.6631 24.0132 21.6313 24.0366 21.6078C24.0601 21.5844 24.0918 21.5712 24.125 21.5712H25.905C27.6319 21.5712 29 20.1543 29 18.4212C29 16.6881 27.55 15.3812 25.8538 15.3812V15.3812Z" stroke="#39BFB2" stroke-width="2" stroke-linecap="round" stroke-linejoin="round"/>
</svg>
