<svg width="278" height="302" viewBox="0 0 278 302" fill="none" xmlns="http://www.w3.org/2000/svg">
<rect x="28" width="250" height="250" rx="20" fill="#39BFB2" fill-opacity="0.2"/>
<circle cx="2" cy="180" r="2" fill="#39BFB2"/>
<circle cx="2" cy="192" r="2" fill="#39BFB2"/>
<circle cx="2" cy="204" r="2" fill="#39BFB2"/>
<circle cx="2" cy="216" r="2" fill="#39BFB2"/>
<circle cx="2" cy="228" r="2" fill="#39BFB2"/>
<circle cx="2" cy="240" r="2" fill="#39BFB2"/>
<circle cx="2" cy="276" r="2" fill="#39BFB2"/>
<circle cx="2" cy="252" r="2" fill="#39BFB2"/>
<circle cx="2" cy="288" r="2" fill="#39BFB2"/>
<circle cx="2" cy="264" r="2" fill="#39BFB2"/>
<circle cx="2" cy="300" r="2" fill="#39BFB2"/>
<circle cx="14" cy="180" r="2" fill="#39BFB2"/>
<circle cx="14" cy="192" r="2" fill="#39BFB2"/>
<circle cx="14" cy="204" r="2" fill="#39BFB2"/>
<circle cx="14" cy="216" r="2" fill="#39BFB2"/>
<circle cx="14" cy="228" r="2" fill="#39BFB2"/>
<circle cx="14" cy="240" r="2" fill="#39BFB2"/>
<circle cx="14" cy="276" r="2" fill="#39BFB2"/>
<circle cx="14" cy="252" r="2" fill="#39BFB2"/>
<circle cx="14" cy="288" r="2" fill="#39BFB2"/>
<circle cx="14" cy="264" r="2" fill="#39BFB2"/>
<circle cx="14" cy="300" r="2" fill="#39BFB2"/>
<circle cx="26" cy="180" r="2" fill="#39BFB2"/>
<circle cx="26" cy="192" r="2" fill="#39BFB2"/>
<circle cx="26" cy="204" r="2" fill="#39BFB2"/>
<circle cx="26" cy="216" r="2" fill="#39BFB2"/>
<circle cx="26" cy="228" r="2" fill="#39BFB2"/>
<circle cx="26" cy="240" r="2" fill="#39BFB2"/>
<circle cx="26" cy="276" r="2" fill="#39BFB2"/>
<circle cx="26" cy="252" r="2" fill="#39BFB2"/>
<circle cx="26" cy="288" r="2" fill="#39BFB2"/>
<circle cx="26" cy="264" r="2" fill="#39BFB2"/>
<circle cx="26" cy="300" r="2" fill="#39BFB2"/>
<circle cx="38" cy="180" r="2" fill="#39BFB2"/>
<circle cx="38" cy="192" r="2" fill="#39BFB2"/>
<circle cx="38" cy="204" r="2" fill="#39BFB2"/>
<circle cx="38" cy="216" r="2" fill="#39BFB2"/>
<circle cx="38" cy="228" r="2" fill="#39BFB2"/>
<circle cx="38" cy="240" r="2" fill="#39BFB2"/>
<circle cx="38" cy="276" r="2" fill="#39BFB2"/>
<circle cx="38" cy="252" r="2" fill="#39BFB2"/>
<circle cx="38" cy="288" r="2" fill="#39BFB2"/>
<circle cx="38" cy="264" r="2" fill="#39BFB2"/>
<circle cx="38" cy="300" r="2" fill="#39BFB2"/>
<circle cx="50" cy="180" r="2" fill="#39BFB2"/>
<circle cx="50" cy="192" r="2" fill="#39BFB2"/>
<circle cx="50" cy="204" r="2" fill="#39BFB2"/>
<circle cx="50" cy="216" r="2" fill="#39BFB2"/>
<circle cx="50" cy="228" r="2" fill="#39BFB2"/>
<circle cx="50" cy="240" r="2" fill="#39BFB2"/>
<circle cx="50" cy="276" r="2" fill="#39BFB2"/>
<circle cx="50" cy="252" r="2" fill="#39BFB2"/>
<circle cx="50" cy="288" r="2" fill="#39BFB2"/>
<circle cx="50" cy="264" r="2" fill="#39BFB2"/>
<circle cx="50" cy="300" r="2" fill="#39BFB2"/>
<circle cx="62" cy="180" r="2" fill="#39BFB2"/>
<circle cx="62" cy="192" r="2" fill="#39BFB2"/>
<circle cx="62" cy="204" r="2" fill="#39BFB2"/>
<circle cx="62" cy="216" r="2" fill="#39BFB2"/>
<circle cx="62" cy="228" r="2" fill="#39BFB2"/>
<circle cx="62" cy="240" r="2" fill="#39BFB2"/>
<circle cx="62" cy="276" r="2" fill="#39BFB2"/>
<circle cx="62" cy="252" r="2" fill="#39BFB2"/>
<circle cx="62" cy="288" r="2" fill="#39BFB2"/>
<circle cx="62" cy="264" r="2" fill="#39BFB2"/>
<circle cx="62" cy="300" r="2" fill="#39BFB2"/>
<circle cx="74" cy="180" r="2" fill="#39BFB2"/>
<circle cx="74" cy="192" r="2" fill="#39BFB2"/>
<circle cx="74" cy="204" r="2" fill="#39BFB2"/>
<circle cx="74" cy="216" r="2" fill="#39BFB2"/>
<circle cx="74" cy="228" r="2" fill="#39BFB2"/>
<circle cx="74" cy="240" r="2" fill="#39BFB2"/>
<circle cx="74" cy="276" r="2" fill="#39BFB2"/>
<circle cx="74" cy="252" r="2" fill="#39BFB2"/>
<circle cx="74" cy="288" r="2" fill="#39BFB2"/>
<circle cx="74" cy="264" r="2" fill="#39BFB2"/>
<circle cx="74" cy="300" r="2" fill="#39BFB2"/>
<circle cx="86" cy="180" r="2" fill="#39BFB2"/>
<circle cx="86" cy="192" r="2" fill="#39BFB2"/>
<circle cx="86" cy="204" r="2" fill="#39BFB2"/>
<circle cx="86" cy="216" r="2" fill="#39BFB2"/>
<circle cx="86" cy="228" r="2" fill="#39BFB2"/>
<circle cx="86" cy="240" r="2" fill="#39BFB2"/>
<circle cx="86" cy="276" r="2" fill="#39BFB2"/>
<circle cx="86" cy="252" r="2" fill="#39BFB2"/>
<circle cx="86" cy="288" r="2" fill="#39BFB2"/>
<circle cx="86" cy="264" r="2" fill="#39BFB2"/>
<circle cx="86" cy="300" r="2" fill="#39BFB2"/>
<circle cx="98" cy="180" r="2" fill="#39BFB2"/>
<circle cx="98" cy="192" r="2" fill="#39BFB2"/>
<circle cx="98" cy="204" r="2" fill="#39BFB2"/>
<circle cx="98" cy="216" r="2" fill="#39BFB2"/>
<circle cx="98" cy="228" r="2" fill="#39BFB2"/>
<circle cx="98" cy="240" r="2" fill="#39BFB2"/>
<circle cx="98" cy="276" r="2" fill="#39BFB2"/>
<circle cx="98" cy="252" r="2" fill="#39BFB2"/>
<circle cx="98" cy="288" r="2" fill="#39BFB2"/>
<circle cx="98" cy="264" r="2" fill="#39BFB2"/>
<circle cx="98" cy="300" r="2" fill="#39BFB2"/>
<circle cx="110" cy="180" r="2" fill="#39BFB2"/>
<circle cx="110" cy="192" r="2" fill="#39BFB2"/>
<circle cx="110" cy="204" r="2" fill="#39BFB2"/>
<circle cx="110" cy="216" r="2" fill="#39BFB2"/>
<circle cx="110" cy="228" r="2" fill="#39BFB2"/>
<circle cx="110" cy="240" r="2" fill="#39BFB2"/>
<circle cx="110" cy="276" r="2" fill="#39BFB2"/>
<circle cx="110" cy="252" r="2" fill="#39BFB2"/>
<circle cx="110" cy="288" r="2" fill="#39BFB2"/>
<circle cx="110" cy="264" r="2" fill="#39BFB2"/>
<circle cx="110" cy="300" r="2" fill="#39BFB2"/>
<circle cx="122" cy="180" r="2" fill="#39BFB2"/>
<circle cx="122" cy="192" r="2" fill="#39BFB2"/>
<circle cx="122" cy="204" r="2" fill="#39BFB2"/>
<circle cx="122" cy="216" r="2" fill="#39BFB2"/>
<circle cx="122" cy="228" r="2" fill="#39BFB2"/>
<circle cx="122" cy="240" r="2" fill="#39BFB2"/>
<circle cx="122" cy="276" r="2" fill="#39BFB2"/>
<circle cx="122" cy="252" r="2" fill="#39BFB2"/>
<circle cx="122" cy="288" r="2" fill="#39BFB2"/>
<circle cx="122" cy="264" r="2" fill="#39BFB2"/>
<circle cx="122" cy="300" r="2" fill="#39BFB2"/>
<circle cx="134" cy="180" r="2" fill="#39BFB2"/>
<circle cx="134" cy="192" r="2" fill="#39BFB2"/>
<circle cx="134" cy="204" r="2" fill="#39BFB2"/>
<circle cx="134" cy="216" r="2" fill="#39BFB2"/>
<circle cx="134" cy="228" r="2" fill="#39BFB2"/>
<circle cx="134" cy="240" r="2" fill="#39BFB2"/>
<circle cx="134" cy="276" r="2" fill="#39BFB2"/>
<circle cx="134" cy="252" r="2" fill="#39BFB2"/>
<circle cx="134" cy="288" r="2" fill="#39BFB2"/>
<circle cx="134" cy="264" r="2" fill="#39BFB2"/>
<circle cx="134" cy="300" r="2" fill="#39BFB2"/>
</svg>
