<svg width="25" height="37" viewBox="0 0 25 37" fill="none" xmlns="http://www.w3.org/2000/svg">
<path d="M1.0276 10.224C1.1876 7.024 2.3076 4.56 4.3876 2.832C6.4996 1.072 9.2676 0.191998 12.6916 0.191998C15.0276 0.191998 17.0276 0.607998 18.6916 1.44C20.3556 2.24 21.6036 3.344 22.4356 4.752C23.2996 6.128 23.7316 7.696 23.7316 9.456C23.7316 11.472 23.2036 13.184 22.1476 14.592C21.1236 15.968 19.8916 16.896 18.4516 17.376V17.568C20.3076 18.144 21.7476 19.168 22.7716 20.64C23.8276 22.112 24.3556 24 24.3556 26.304C24.3556 28.224 23.9076 29.936 23.0116 31.44C22.1476 32.944 20.8516 34.128 19.1236 34.992C17.4276 35.824 15.3796 36.24 12.9796 36.24C9.3636 36.24 6.4196 35.328 4.1476 33.504C1.8756 31.68 0.675598 28.992 0.547598 25.44H7.0756C7.1396 27.008 7.6676 28.272 8.6596 29.232C9.6836 30.16 11.0756 30.624 12.8356 30.624C14.4676 30.624 15.7156 30.176 16.5796 29.28C17.4756 28.352 17.9236 27.168 17.9236 25.728C17.9236 23.808 17.3156 22.432 16.0996 21.6C14.8836 20.768 12.9956 20.352 10.4356 20.352H9.0436V14.832H10.4356C14.9796 14.832 17.2516 13.312 17.2516 10.272C17.2516 8.896 16.8356 7.824 16.0036 7.056C15.2036 6.288 14.0356 5.904 12.4996 5.904C10.9956 5.904 9.8276 6.32 8.9956 7.152C8.1956 7.952 7.7316 8.976 7.6036 10.224H1.0276Z" fill="#38BDF2"/>
</svg>
