<svg width="25" height="36" viewBox="0 0 25 36" fill="none" xmlns="http://www.w3.org/2000/svg">
<path d="M2.87475 28.416C5.94675 25.856 8.39475 23.728 10.2188 22.032C12.0428 20.304 13.5628 18.512 14.7788 16.656C15.9948 14.8 16.6028 12.976 16.6028 11.184C16.6028 9.552 16.2188 8.272 15.4508 7.344C14.6828 6.416 13.4988 5.952 11.8988 5.952C10.2988 5.952 9.06675 6.496 8.20275 7.584C7.33875 8.64 6.89075 10.096 6.85875 11.952H0.33075C0.45875 8.112 1.59475 5.2 3.73875 3.216C5.91475 1.232 8.66675 0.239997 11.9948 0.239997C15.6428 0.239997 18.4428 1.216 20.3948 3.168C22.3468 5.088 23.3228 7.632 23.3228 10.8C23.3228 13.296 22.6508 15.68 21.3068 17.952C19.9628 20.224 18.4268 22.208 16.6988 23.904C14.9708 25.568 12.7148 27.584 9.93075 29.952H24.0908V35.52H0.37875V30.528L2.87475 28.416Z" fill="#38BDF2"/>
</svg>
