<svg width="48" height="48" viewBox="0 0 48 48" fill="none" xmlns="http://www.w3.org/2000/svg">
<circle cx="24" cy="24" r="24" fill="#F2A922"/>
<path d="M14.004 34L15.356 29.032C14.4652 27.5049 13.9971 25.768 14 24C14 18.477 18.477 14 24 14C29.523 14 34 18.477 34 24C34 29.523 29.523 34 24 34C22.2328 34.0029 20.4967 33.5352 18.97 32.645L14.004 34ZM20.391 19.308C20.2619 19.316 20.1357 19.35 20.02 19.408C19.9115 19.4694 19.8125 19.5462 19.726 19.636C19.606 19.749 19.538 19.847 19.465 19.942C19.0954 20.423 18.8966 21.0134 18.9 21.62C18.902 22.11 19.03 22.587 19.23 23.033C19.639 23.935 20.312 24.89 21.201 25.775C21.415 25.988 21.624 26.202 21.849 26.401C22.9524 27.3725 24.2673 28.073 25.689 28.447L26.258 28.534C26.443 28.544 26.628 28.53 26.814 28.521C27.1053 28.506 27.3896 28.4271 27.647 28.29C27.813 28.202 27.891 28.158 28.03 28.07C28.03 28.07 28.073 28.042 28.155 27.98C28.29 27.88 28.373 27.809 28.485 27.692C28.568 27.606 28.64 27.505 28.695 27.39C28.773 27.227 28.851 26.916 28.883 26.657C28.907 26.459 28.9 26.351 28.897 26.284C28.893 26.177 28.804 26.066 28.707 26.019L28.125 25.758C28.125 25.758 27.255 25.379 26.724 25.137C26.668 25.1126 26.608 25.0987 26.547 25.096C26.4786 25.089 26.4095 25.0967 26.3443 25.1186C26.2791 25.1405 26.2193 25.1761 26.169 25.223V25.221C26.164 25.221 26.097 25.278 25.374 26.154C25.3325 26.2098 25.2754 26.2519 25.2098 26.2751C25.1443 26.2982 25.0733 26.3013 25.006 26.284C24.9409 26.2666 24.877 26.2445 24.815 26.218C24.691 26.166 24.648 26.146 24.563 26.109L24.558 26.107C23.9859 25.8572 23.4562 25.5198 22.988 25.107C22.862 24.997 22.745 24.877 22.625 24.761C22.2316 24.3842 21.8887 23.958 21.605 23.493L21.546 23.398C21.5036 23.3342 21.4694 23.2653 21.444 23.193C21.406 23.046 21.505 22.928 21.505 22.928C21.505 22.928 21.748 22.662 21.861 22.518C21.9551 22.3983 22.0429 22.2738 22.124 22.145C22.242 21.955 22.279 21.76 22.217 21.609C21.937 20.925 21.647 20.244 21.349 19.568C21.29 19.434 21.115 19.338 20.956 19.319C20.902 19.313 20.848 19.307 20.794 19.303C20.6597 19.2963 20.5251 19.2977 20.391 19.307V19.308Z" fill="#F5F5F5"/>
</svg>
